G04 #@! TF.GenerationSoftware,KiCad,Pcbnew,5.1.5+dfsg1-2build2*
G04 #@! TF.CreationDate,2020-08-23T11:23:10+01:00*
G04 #@! TF.ProjectId,psoc6_beacon_gateway,70736f63-365f-4626-9561-636f6e5f6761,rev?*
G04 #@! TF.SameCoordinates,Original*
G04 #@! TF.FileFunction,Paste,Top*
G04 #@! TF.FilePolarity,Positive*
%FSLAX46Y46*%
G04 Gerber Fmt 4.6, Leading zero omitted, Abs format (unit mm)*
G04 Created by KiCad (PCBNEW 5.1.5+dfsg1-2build2) date 2020-08-23 11:23:10*
%MOMM*%
%LPD*%
G04 APERTURE LIST*
%ADD10R,3.050000X2.750000*%
%ADD11R,2.200000X1.200000*%
%ADD12R,3.100000X1.600000*%
%ADD13C,0.100000*%
G04 APERTURE END LIST*
D10*
X-39033000Y-2285000D03*
X-42383000Y-5335000D03*
X-39033000Y-5335000D03*
X-42383000Y-2285000D03*
D11*
X-34408000Y-1530000D03*
X-34408000Y-6090000D03*
D10*
X-39033000Y-11936000D03*
X-42383000Y-14986000D03*
X-39033000Y-14986000D03*
X-42383000Y-11936000D03*
D11*
X-34408000Y-11181000D03*
X-34408000Y-15741000D03*
D12*
X-53975000Y-1524000D03*
X-62865000Y-6604000D03*
X-53975000Y-4064000D03*
X-62865000Y-4064000D03*
X-53975000Y-6604000D03*
X-62865000Y-1524000D03*
X-53975000Y-10922000D03*
X-62865000Y-16002000D03*
X-53975000Y-13462000D03*
X-62865000Y-13462000D03*
X-53975000Y-16002000D03*
X-62865000Y-10922000D03*
D13*
G36*
X-50022496Y-5730204D02*
G01*
X-49998227Y-5733804D01*
X-49974429Y-5739765D01*
X-49951329Y-5748030D01*
X-49929151Y-5758520D01*
X-49908107Y-5771133D01*
X-49888402Y-5785747D01*
X-49870223Y-5802223D01*
X-49853747Y-5820402D01*
X-49839133Y-5840107D01*
X-49826520Y-5861151D01*
X-49816030Y-5883329D01*
X-49807765Y-5906429D01*
X-49801804Y-5930227D01*
X-49798204Y-5954496D01*
X-49797000Y-5979000D01*
X-49797000Y-7229000D01*
X-49798204Y-7253504D01*
X-49801804Y-7277773D01*
X-49807765Y-7301571D01*
X-49816030Y-7324671D01*
X-49826520Y-7346849D01*
X-49839133Y-7367893D01*
X-49853747Y-7387598D01*
X-49870223Y-7405777D01*
X-49888402Y-7422253D01*
X-49908107Y-7436867D01*
X-49929151Y-7449480D01*
X-49951329Y-7459970D01*
X-49974429Y-7468235D01*
X-49998227Y-7474196D01*
X-50022496Y-7477796D01*
X-50047000Y-7479000D01*
X-50797000Y-7479000D01*
X-50821504Y-7477796D01*
X-50845773Y-7474196D01*
X-50869571Y-7468235D01*
X-50892671Y-7459970D01*
X-50914849Y-7449480D01*
X-50935893Y-7436867D01*
X-50955598Y-7422253D01*
X-50973777Y-7405777D01*
X-50990253Y-7387598D01*
X-51004867Y-7367893D01*
X-51017480Y-7346849D01*
X-51027970Y-7324671D01*
X-51036235Y-7301571D01*
X-51042196Y-7277773D01*
X-51045796Y-7253504D01*
X-51047000Y-7229000D01*
X-51047000Y-5979000D01*
X-51045796Y-5954496D01*
X-51042196Y-5930227D01*
X-51036235Y-5906429D01*
X-51027970Y-5883329D01*
X-51017480Y-5861151D01*
X-51004867Y-5840107D01*
X-50990253Y-5820402D01*
X-50973777Y-5802223D01*
X-50955598Y-5785747D01*
X-50935893Y-5771133D01*
X-50914849Y-5758520D01*
X-50892671Y-5748030D01*
X-50869571Y-5739765D01*
X-50845773Y-5733804D01*
X-50821504Y-5730204D01*
X-50797000Y-5729000D01*
X-50047000Y-5729000D01*
X-50022496Y-5730204D01*
G37*
G36*
X-47222496Y-5730204D02*
G01*
X-47198227Y-5733804D01*
X-47174429Y-5739765D01*
X-47151329Y-5748030D01*
X-47129151Y-5758520D01*
X-47108107Y-5771133D01*
X-47088402Y-5785747D01*
X-47070223Y-5802223D01*
X-47053747Y-5820402D01*
X-47039133Y-5840107D01*
X-47026520Y-5861151D01*
X-47016030Y-5883329D01*
X-47007765Y-5906429D01*
X-47001804Y-5930227D01*
X-46998204Y-5954496D01*
X-46997000Y-5979000D01*
X-46997000Y-7229000D01*
X-46998204Y-7253504D01*
X-47001804Y-7277773D01*
X-47007765Y-7301571D01*
X-47016030Y-7324671D01*
X-47026520Y-7346849D01*
X-47039133Y-7367893D01*
X-47053747Y-7387598D01*
X-47070223Y-7405777D01*
X-47088402Y-7422253D01*
X-47108107Y-7436867D01*
X-47129151Y-7449480D01*
X-47151329Y-7459970D01*
X-47174429Y-7468235D01*
X-47198227Y-7474196D01*
X-47222496Y-7477796D01*
X-47247000Y-7479000D01*
X-47997000Y-7479000D01*
X-48021504Y-7477796D01*
X-48045773Y-7474196D01*
X-48069571Y-7468235D01*
X-48092671Y-7459970D01*
X-48114849Y-7449480D01*
X-48135893Y-7436867D01*
X-48155598Y-7422253D01*
X-48173777Y-7405777D01*
X-48190253Y-7387598D01*
X-48204867Y-7367893D01*
X-48217480Y-7346849D01*
X-48227970Y-7324671D01*
X-48236235Y-7301571D01*
X-48242196Y-7277773D01*
X-48245796Y-7253504D01*
X-48247000Y-7229000D01*
X-48247000Y-5979000D01*
X-48245796Y-5954496D01*
X-48242196Y-5930227D01*
X-48236235Y-5906429D01*
X-48227970Y-5883329D01*
X-48217480Y-5861151D01*
X-48204867Y-5840107D01*
X-48190253Y-5820402D01*
X-48173777Y-5802223D01*
X-48155598Y-5785747D01*
X-48135893Y-5771133D01*
X-48114849Y-5758520D01*
X-48092671Y-5748030D01*
X-48069571Y-5739765D01*
X-48045773Y-5733804D01*
X-48021504Y-5730204D01*
X-47997000Y-5729000D01*
X-47247000Y-5729000D01*
X-47222496Y-5730204D01*
G37*
G36*
X-50022496Y-650204D02*
G01*
X-49998227Y-653804D01*
X-49974429Y-659765D01*
X-49951329Y-668030D01*
X-49929151Y-678520D01*
X-49908107Y-691133D01*
X-49888402Y-705747D01*
X-49870223Y-722223D01*
X-49853747Y-740402D01*
X-49839133Y-760107D01*
X-49826520Y-781151D01*
X-49816030Y-803329D01*
X-49807765Y-826429D01*
X-49801804Y-850227D01*
X-49798204Y-874496D01*
X-49797000Y-899000D01*
X-49797000Y-2149000D01*
X-49798204Y-2173504D01*
X-49801804Y-2197773D01*
X-49807765Y-2221571D01*
X-49816030Y-2244671D01*
X-49826520Y-2266849D01*
X-49839133Y-2287893D01*
X-49853747Y-2307598D01*
X-49870223Y-2325777D01*
X-49888402Y-2342253D01*
X-49908107Y-2356867D01*
X-49929151Y-2369480D01*
X-49951329Y-2379970D01*
X-49974429Y-2388235D01*
X-49998227Y-2394196D01*
X-50022496Y-2397796D01*
X-50047000Y-2399000D01*
X-50797000Y-2399000D01*
X-50821504Y-2397796D01*
X-50845773Y-2394196D01*
X-50869571Y-2388235D01*
X-50892671Y-2379970D01*
X-50914849Y-2369480D01*
X-50935893Y-2356867D01*
X-50955598Y-2342253D01*
X-50973777Y-2325777D01*
X-50990253Y-2307598D01*
X-51004867Y-2287893D01*
X-51017480Y-2266849D01*
X-51027970Y-2244671D01*
X-51036235Y-2221571D01*
X-51042196Y-2197773D01*
X-51045796Y-2173504D01*
X-51047000Y-2149000D01*
X-51047000Y-899000D01*
X-51045796Y-874496D01*
X-51042196Y-850227D01*
X-51036235Y-826429D01*
X-51027970Y-803329D01*
X-51017480Y-781151D01*
X-51004867Y-760107D01*
X-50990253Y-740402D01*
X-50973777Y-722223D01*
X-50955598Y-705747D01*
X-50935893Y-691133D01*
X-50914849Y-678520D01*
X-50892671Y-668030D01*
X-50869571Y-659765D01*
X-50845773Y-653804D01*
X-50821504Y-650204D01*
X-50797000Y-649000D01*
X-50047000Y-649000D01*
X-50022496Y-650204D01*
G37*
G36*
X-47222496Y-650204D02*
G01*
X-47198227Y-653804D01*
X-47174429Y-659765D01*
X-47151329Y-668030D01*
X-47129151Y-678520D01*
X-47108107Y-691133D01*
X-47088402Y-705747D01*
X-47070223Y-722223D01*
X-47053747Y-740402D01*
X-47039133Y-760107D01*
X-47026520Y-781151D01*
X-47016030Y-803329D01*
X-47007765Y-826429D01*
X-47001804Y-850227D01*
X-46998204Y-874496D01*
X-46997000Y-899000D01*
X-46997000Y-2149000D01*
X-46998204Y-2173504D01*
X-47001804Y-2197773D01*
X-47007765Y-2221571D01*
X-47016030Y-2244671D01*
X-47026520Y-2266849D01*
X-47039133Y-2287893D01*
X-47053747Y-2307598D01*
X-47070223Y-2325777D01*
X-47088402Y-2342253D01*
X-47108107Y-2356867D01*
X-47129151Y-2369480D01*
X-47151329Y-2379970D01*
X-47174429Y-2388235D01*
X-47198227Y-2394196D01*
X-47222496Y-2397796D01*
X-47247000Y-2399000D01*
X-47997000Y-2399000D01*
X-48021504Y-2397796D01*
X-48045773Y-2394196D01*
X-48069571Y-2388235D01*
X-48092671Y-2379970D01*
X-48114849Y-2369480D01*
X-48135893Y-2356867D01*
X-48155598Y-2342253D01*
X-48173777Y-2325777D01*
X-48190253Y-2307598D01*
X-48204867Y-2287893D01*
X-48217480Y-2266849D01*
X-48227970Y-2244671D01*
X-48236235Y-2221571D01*
X-48242196Y-2197773D01*
X-48245796Y-2173504D01*
X-48247000Y-2149000D01*
X-48247000Y-899000D01*
X-48245796Y-874496D01*
X-48242196Y-850227D01*
X-48236235Y-826429D01*
X-48227970Y-803329D01*
X-48217480Y-781151D01*
X-48204867Y-760107D01*
X-48190253Y-740402D01*
X-48173777Y-722223D01*
X-48155598Y-705747D01*
X-48135893Y-691133D01*
X-48114849Y-678520D01*
X-48092671Y-668030D01*
X-48069571Y-659765D01*
X-48045773Y-653804D01*
X-48021504Y-650204D01*
X-47997000Y-649000D01*
X-47247000Y-649000D01*
X-47222496Y-650204D01*
G37*
G36*
X-50022496Y-15128204D02*
G01*
X-49998227Y-15131804D01*
X-49974429Y-15137765D01*
X-49951329Y-15146030D01*
X-49929151Y-15156520D01*
X-49908107Y-15169133D01*
X-49888402Y-15183747D01*
X-49870223Y-15200223D01*
X-49853747Y-15218402D01*
X-49839133Y-15238107D01*
X-49826520Y-15259151D01*
X-49816030Y-15281329D01*
X-49807765Y-15304429D01*
X-49801804Y-15328227D01*
X-49798204Y-15352496D01*
X-49797000Y-15377000D01*
X-49797000Y-16627000D01*
X-49798204Y-16651504D01*
X-49801804Y-16675773D01*
X-49807765Y-16699571D01*
X-49816030Y-16722671D01*
X-49826520Y-16744849D01*
X-49839133Y-16765893D01*
X-49853747Y-16785598D01*
X-49870223Y-16803777D01*
X-49888402Y-16820253D01*
X-49908107Y-16834867D01*
X-49929151Y-16847480D01*
X-49951329Y-16857970D01*
X-49974429Y-16866235D01*
X-49998227Y-16872196D01*
X-50022496Y-16875796D01*
X-50047000Y-16877000D01*
X-50797000Y-16877000D01*
X-50821504Y-16875796D01*
X-50845773Y-16872196D01*
X-50869571Y-16866235D01*
X-50892671Y-16857970D01*
X-50914849Y-16847480D01*
X-50935893Y-16834867D01*
X-50955598Y-16820253D01*
X-50973777Y-16803777D01*
X-50990253Y-16785598D01*
X-51004867Y-16765893D01*
X-51017480Y-16744849D01*
X-51027970Y-16722671D01*
X-51036235Y-16699571D01*
X-51042196Y-16675773D01*
X-51045796Y-16651504D01*
X-51047000Y-16627000D01*
X-51047000Y-15377000D01*
X-51045796Y-15352496D01*
X-51042196Y-15328227D01*
X-51036235Y-15304429D01*
X-51027970Y-15281329D01*
X-51017480Y-15259151D01*
X-51004867Y-15238107D01*
X-50990253Y-15218402D01*
X-50973777Y-15200223D01*
X-50955598Y-15183747D01*
X-50935893Y-15169133D01*
X-50914849Y-15156520D01*
X-50892671Y-15146030D01*
X-50869571Y-15137765D01*
X-50845773Y-15131804D01*
X-50821504Y-15128204D01*
X-50797000Y-15127000D01*
X-50047000Y-15127000D01*
X-50022496Y-15128204D01*
G37*
G36*
X-47222496Y-15128204D02*
G01*
X-47198227Y-15131804D01*
X-47174429Y-15137765D01*
X-47151329Y-15146030D01*
X-47129151Y-15156520D01*
X-47108107Y-15169133D01*
X-47088402Y-15183747D01*
X-47070223Y-15200223D01*
X-47053747Y-15218402D01*
X-47039133Y-15238107D01*
X-47026520Y-15259151D01*
X-47016030Y-15281329D01*
X-47007765Y-15304429D01*
X-47001804Y-15328227D01*
X-46998204Y-15352496D01*
X-46997000Y-15377000D01*
X-46997000Y-16627000D01*
X-46998204Y-16651504D01*
X-47001804Y-16675773D01*
X-47007765Y-16699571D01*
X-47016030Y-16722671D01*
X-47026520Y-16744849D01*
X-47039133Y-16765893D01*
X-47053747Y-16785598D01*
X-47070223Y-16803777D01*
X-47088402Y-16820253D01*
X-47108107Y-16834867D01*
X-47129151Y-16847480D01*
X-47151329Y-16857970D01*
X-47174429Y-16866235D01*
X-47198227Y-16872196D01*
X-47222496Y-16875796D01*
X-47247000Y-16877000D01*
X-47997000Y-16877000D01*
X-48021504Y-16875796D01*
X-48045773Y-16872196D01*
X-48069571Y-16866235D01*
X-48092671Y-16857970D01*
X-48114849Y-16847480D01*
X-48135893Y-16834867D01*
X-48155598Y-16820253D01*
X-48173777Y-16803777D01*
X-48190253Y-16785598D01*
X-48204867Y-16765893D01*
X-48217480Y-16744849D01*
X-48227970Y-16722671D01*
X-48236235Y-16699571D01*
X-48242196Y-16675773D01*
X-48245796Y-16651504D01*
X-48247000Y-16627000D01*
X-48247000Y-15377000D01*
X-48245796Y-15352496D01*
X-48242196Y-15328227D01*
X-48236235Y-15304429D01*
X-48227970Y-15281329D01*
X-48217480Y-15259151D01*
X-48204867Y-15238107D01*
X-48190253Y-15218402D01*
X-48173777Y-15200223D01*
X-48155598Y-15183747D01*
X-48135893Y-15169133D01*
X-48114849Y-15156520D01*
X-48092671Y-15146030D01*
X-48069571Y-15137765D01*
X-48045773Y-15131804D01*
X-48021504Y-15128204D01*
X-47997000Y-15127000D01*
X-47247000Y-15127000D01*
X-47222496Y-15128204D01*
G37*
G36*
X-50022496Y-10048204D02*
G01*
X-49998227Y-10051804D01*
X-49974429Y-10057765D01*
X-49951329Y-10066030D01*
X-49929151Y-10076520D01*
X-49908107Y-10089133D01*
X-49888402Y-10103747D01*
X-49870223Y-10120223D01*
X-49853747Y-10138402D01*
X-49839133Y-10158107D01*
X-49826520Y-10179151D01*
X-49816030Y-10201329D01*
X-49807765Y-10224429D01*
X-49801804Y-10248227D01*
X-49798204Y-10272496D01*
X-49797000Y-10297000D01*
X-49797000Y-11547000D01*
X-49798204Y-11571504D01*
X-49801804Y-11595773D01*
X-49807765Y-11619571D01*
X-49816030Y-11642671D01*
X-49826520Y-11664849D01*
X-49839133Y-11685893D01*
X-49853747Y-11705598D01*
X-49870223Y-11723777D01*
X-49888402Y-11740253D01*
X-49908107Y-11754867D01*
X-49929151Y-11767480D01*
X-49951329Y-11777970D01*
X-49974429Y-11786235D01*
X-49998227Y-11792196D01*
X-50022496Y-11795796D01*
X-50047000Y-11797000D01*
X-50797000Y-11797000D01*
X-50821504Y-11795796D01*
X-50845773Y-11792196D01*
X-50869571Y-11786235D01*
X-50892671Y-11777970D01*
X-50914849Y-11767480D01*
X-50935893Y-11754867D01*
X-50955598Y-11740253D01*
X-50973777Y-11723777D01*
X-50990253Y-11705598D01*
X-51004867Y-11685893D01*
X-51017480Y-11664849D01*
X-51027970Y-11642671D01*
X-51036235Y-11619571D01*
X-51042196Y-11595773D01*
X-51045796Y-11571504D01*
X-51047000Y-11547000D01*
X-51047000Y-10297000D01*
X-51045796Y-10272496D01*
X-51042196Y-10248227D01*
X-51036235Y-10224429D01*
X-51027970Y-10201329D01*
X-51017480Y-10179151D01*
X-51004867Y-10158107D01*
X-50990253Y-10138402D01*
X-50973777Y-10120223D01*
X-50955598Y-10103747D01*
X-50935893Y-10089133D01*
X-50914849Y-10076520D01*
X-50892671Y-10066030D01*
X-50869571Y-10057765D01*
X-50845773Y-10051804D01*
X-50821504Y-10048204D01*
X-50797000Y-10047000D01*
X-50047000Y-10047000D01*
X-50022496Y-10048204D01*
G37*
G36*
X-47222496Y-10048204D02*
G01*
X-47198227Y-10051804D01*
X-47174429Y-10057765D01*
X-47151329Y-10066030D01*
X-47129151Y-10076520D01*
X-47108107Y-10089133D01*
X-47088402Y-10103747D01*
X-47070223Y-10120223D01*
X-47053747Y-10138402D01*
X-47039133Y-10158107D01*
X-47026520Y-10179151D01*
X-47016030Y-10201329D01*
X-47007765Y-10224429D01*
X-47001804Y-10248227D01*
X-46998204Y-10272496D01*
X-46997000Y-10297000D01*
X-46997000Y-11547000D01*
X-46998204Y-11571504D01*
X-47001804Y-11595773D01*
X-47007765Y-11619571D01*
X-47016030Y-11642671D01*
X-47026520Y-11664849D01*
X-47039133Y-11685893D01*
X-47053747Y-11705598D01*
X-47070223Y-11723777D01*
X-47088402Y-11740253D01*
X-47108107Y-11754867D01*
X-47129151Y-11767480D01*
X-47151329Y-11777970D01*
X-47174429Y-11786235D01*
X-47198227Y-11792196D01*
X-47222496Y-11795796D01*
X-47247000Y-11797000D01*
X-47997000Y-11797000D01*
X-48021504Y-11795796D01*
X-48045773Y-11792196D01*
X-48069571Y-11786235D01*
X-48092671Y-11777970D01*
X-48114849Y-11767480D01*
X-48135893Y-11754867D01*
X-48155598Y-11740253D01*
X-48173777Y-11723777D01*
X-48190253Y-11705598D01*
X-48204867Y-11685893D01*
X-48217480Y-11664849D01*
X-48227970Y-11642671D01*
X-48236235Y-11619571D01*
X-48242196Y-11595773D01*
X-48245796Y-11571504D01*
X-48247000Y-11547000D01*
X-48247000Y-10297000D01*
X-48245796Y-10272496D01*
X-48242196Y-10248227D01*
X-48236235Y-10224429D01*
X-48227970Y-10201329D01*
X-48217480Y-10179151D01*
X-48204867Y-10158107D01*
X-48190253Y-10138402D01*
X-48173777Y-10120223D01*
X-48155598Y-10103747D01*
X-48135893Y-10089133D01*
X-48114849Y-10076520D01*
X-48092671Y-10066030D01*
X-48069571Y-10057765D01*
X-48045773Y-10051804D01*
X-48021504Y-10048204D01*
X-47997000Y-10047000D01*
X-47247000Y-10047000D01*
X-47222496Y-10048204D01*
G37*
G36*
X-67349309Y-796053D02*
G01*
X-67328074Y-799203D01*
X-67307250Y-804419D01*
X-67287038Y-811651D01*
X-67267632Y-820830D01*
X-67249219Y-831866D01*
X-67231976Y-844654D01*
X-67216070Y-859070D01*
X-67201654Y-874976D01*
X-67188866Y-892219D01*
X-67177830Y-910632D01*
X-67168651Y-930038D01*
X-67161419Y-950250D01*
X-67156203Y-971074D01*
X-67153053Y-992309D01*
X-67152000Y-1013750D01*
X-67152000Y-1526250D01*
X-67153053Y-1547691D01*
X-67156203Y-1568926D01*
X-67161419Y-1589750D01*
X-67168651Y-1609962D01*
X-67177830Y-1629368D01*
X-67188866Y-1647781D01*
X-67201654Y-1665024D01*
X-67216070Y-1680930D01*
X-67231976Y-1695346D01*
X-67249219Y-1708134D01*
X-67267632Y-1719170D01*
X-67287038Y-1728349D01*
X-67307250Y-1735581D01*
X-67328074Y-1740797D01*
X-67349309Y-1743947D01*
X-67370750Y-1745000D01*
X-67808250Y-1745000D01*
X-67829691Y-1743947D01*
X-67850926Y-1740797D01*
X-67871750Y-1735581D01*
X-67891962Y-1728349D01*
X-67911368Y-1719170D01*
X-67929781Y-1708134D01*
X-67947024Y-1695346D01*
X-67962930Y-1680930D01*
X-67977346Y-1665024D01*
X-67990134Y-1647781D01*
X-68001170Y-1629368D01*
X-68010349Y-1609962D01*
X-68017581Y-1589750D01*
X-68022797Y-1568926D01*
X-68025947Y-1547691D01*
X-68027000Y-1526250D01*
X-68027000Y-1013750D01*
X-68025947Y-992309D01*
X-68022797Y-971074D01*
X-68017581Y-950250D01*
X-68010349Y-930038D01*
X-68001170Y-910632D01*
X-67990134Y-892219D01*
X-67977346Y-874976D01*
X-67962930Y-859070D01*
X-67947024Y-844654D01*
X-67929781Y-831866D01*
X-67911368Y-820830D01*
X-67891962Y-811651D01*
X-67871750Y-804419D01*
X-67850926Y-799203D01*
X-67829691Y-796053D01*
X-67808250Y-795000D01*
X-67370750Y-795000D01*
X-67349309Y-796053D01*
G37*
G36*
X-65774309Y-796053D02*
G01*
X-65753074Y-799203D01*
X-65732250Y-804419D01*
X-65712038Y-811651D01*
X-65692632Y-820830D01*
X-65674219Y-831866D01*
X-65656976Y-844654D01*
X-65641070Y-859070D01*
X-65626654Y-874976D01*
X-65613866Y-892219D01*
X-65602830Y-910632D01*
X-65593651Y-930038D01*
X-65586419Y-950250D01*
X-65581203Y-971074D01*
X-65578053Y-992309D01*
X-65577000Y-1013750D01*
X-65577000Y-1526250D01*
X-65578053Y-1547691D01*
X-65581203Y-1568926D01*
X-65586419Y-1589750D01*
X-65593651Y-1609962D01*
X-65602830Y-1629368D01*
X-65613866Y-1647781D01*
X-65626654Y-1665024D01*
X-65641070Y-1680930D01*
X-65656976Y-1695346D01*
X-65674219Y-1708134D01*
X-65692632Y-1719170D01*
X-65712038Y-1728349D01*
X-65732250Y-1735581D01*
X-65753074Y-1740797D01*
X-65774309Y-1743947D01*
X-65795750Y-1745000D01*
X-66233250Y-1745000D01*
X-66254691Y-1743947D01*
X-66275926Y-1740797D01*
X-66296750Y-1735581D01*
X-66316962Y-1728349D01*
X-66336368Y-1719170D01*
X-66354781Y-1708134D01*
X-66372024Y-1695346D01*
X-66387930Y-1680930D01*
X-66402346Y-1665024D01*
X-66415134Y-1647781D01*
X-66426170Y-1629368D01*
X-66435349Y-1609962D01*
X-66442581Y-1589750D01*
X-66447797Y-1568926D01*
X-66450947Y-1547691D01*
X-66452000Y-1526250D01*
X-66452000Y-1013750D01*
X-66450947Y-992309D01*
X-66447797Y-971074D01*
X-66442581Y-950250D01*
X-66435349Y-930038D01*
X-66426170Y-910632D01*
X-66415134Y-892219D01*
X-66402346Y-874976D01*
X-66387930Y-859070D01*
X-66372024Y-844654D01*
X-66354781Y-831866D01*
X-66336368Y-820830D01*
X-66316962Y-811651D01*
X-66296750Y-804419D01*
X-66275926Y-799203D01*
X-66254691Y-796053D01*
X-66233250Y-795000D01*
X-65795750Y-795000D01*
X-65774309Y-796053D01*
G37*
G36*
X-67349309Y-10448053D02*
G01*
X-67328074Y-10451203D01*
X-67307250Y-10456419D01*
X-67287038Y-10463651D01*
X-67267632Y-10472830D01*
X-67249219Y-10483866D01*
X-67231976Y-10496654D01*
X-67216070Y-10511070D01*
X-67201654Y-10526976D01*
X-67188866Y-10544219D01*
X-67177830Y-10562632D01*
X-67168651Y-10582038D01*
X-67161419Y-10602250D01*
X-67156203Y-10623074D01*
X-67153053Y-10644309D01*
X-67152000Y-10665750D01*
X-67152000Y-11178250D01*
X-67153053Y-11199691D01*
X-67156203Y-11220926D01*
X-67161419Y-11241750D01*
X-67168651Y-11261962D01*
X-67177830Y-11281368D01*
X-67188866Y-11299781D01*
X-67201654Y-11317024D01*
X-67216070Y-11332930D01*
X-67231976Y-11347346D01*
X-67249219Y-11360134D01*
X-67267632Y-11371170D01*
X-67287038Y-11380349D01*
X-67307250Y-11387581D01*
X-67328074Y-11392797D01*
X-67349309Y-11395947D01*
X-67370750Y-11397000D01*
X-67808250Y-11397000D01*
X-67829691Y-11395947D01*
X-67850926Y-11392797D01*
X-67871750Y-11387581D01*
X-67891962Y-11380349D01*
X-67911368Y-11371170D01*
X-67929781Y-11360134D01*
X-67947024Y-11347346D01*
X-67962930Y-11332930D01*
X-67977346Y-11317024D01*
X-67990134Y-11299781D01*
X-68001170Y-11281368D01*
X-68010349Y-11261962D01*
X-68017581Y-11241750D01*
X-68022797Y-11220926D01*
X-68025947Y-11199691D01*
X-68027000Y-11178250D01*
X-68027000Y-10665750D01*
X-68025947Y-10644309D01*
X-68022797Y-10623074D01*
X-68017581Y-10602250D01*
X-68010349Y-10582038D01*
X-68001170Y-10562632D01*
X-67990134Y-10544219D01*
X-67977346Y-10526976D01*
X-67962930Y-10511070D01*
X-67947024Y-10496654D01*
X-67929781Y-10483866D01*
X-67911368Y-10472830D01*
X-67891962Y-10463651D01*
X-67871750Y-10456419D01*
X-67850926Y-10451203D01*
X-67829691Y-10448053D01*
X-67808250Y-10447000D01*
X-67370750Y-10447000D01*
X-67349309Y-10448053D01*
G37*
G36*
X-65774309Y-10448053D02*
G01*
X-65753074Y-10451203D01*
X-65732250Y-10456419D01*
X-65712038Y-10463651D01*
X-65692632Y-10472830D01*
X-65674219Y-10483866D01*
X-65656976Y-10496654D01*
X-65641070Y-10511070D01*
X-65626654Y-10526976D01*
X-65613866Y-10544219D01*
X-65602830Y-10562632D01*
X-65593651Y-10582038D01*
X-65586419Y-10602250D01*
X-65581203Y-10623074D01*
X-65578053Y-10644309D01*
X-65577000Y-10665750D01*
X-65577000Y-11178250D01*
X-65578053Y-11199691D01*
X-65581203Y-11220926D01*
X-65586419Y-11241750D01*
X-65593651Y-11261962D01*
X-65602830Y-11281368D01*
X-65613866Y-11299781D01*
X-65626654Y-11317024D01*
X-65641070Y-11332930D01*
X-65656976Y-11347346D01*
X-65674219Y-11360134D01*
X-65692632Y-11371170D01*
X-65712038Y-11380349D01*
X-65732250Y-11387581D01*
X-65753074Y-11392797D01*
X-65774309Y-11395947D01*
X-65795750Y-11397000D01*
X-66233250Y-11397000D01*
X-66254691Y-11395947D01*
X-66275926Y-11392797D01*
X-66296750Y-11387581D01*
X-66316962Y-11380349D01*
X-66336368Y-11371170D01*
X-66354781Y-11360134D01*
X-66372024Y-11347346D01*
X-66387930Y-11332930D01*
X-66402346Y-11317024D01*
X-66415134Y-11299781D01*
X-66426170Y-11281368D01*
X-66435349Y-11261962D01*
X-66442581Y-11241750D01*
X-66447797Y-11220926D01*
X-66450947Y-11199691D01*
X-66452000Y-11178250D01*
X-66452000Y-10665750D01*
X-66450947Y-10644309D01*
X-66447797Y-10623074D01*
X-66442581Y-10602250D01*
X-66435349Y-10582038D01*
X-66426170Y-10562632D01*
X-66415134Y-10544219D01*
X-66402346Y-10526976D01*
X-66387930Y-10511070D01*
X-66372024Y-10496654D01*
X-66354781Y-10483866D01*
X-66336368Y-10472830D01*
X-66316962Y-10463651D01*
X-66296750Y-10456419D01*
X-66275926Y-10451203D01*
X-66254691Y-10448053D01*
X-66233250Y-10447000D01*
X-65795750Y-10447000D01*
X-65774309Y-10448053D01*
G37*
G36*
X-54586309Y-33625053D02*
G01*
X-54565074Y-33628203D01*
X-54544250Y-33633419D01*
X-54524038Y-33640651D01*
X-54504632Y-33649830D01*
X-54486219Y-33660866D01*
X-54468976Y-33673654D01*
X-54453070Y-33688070D01*
X-54438654Y-33703976D01*
X-54425866Y-33721219D01*
X-54414830Y-33739632D01*
X-54405651Y-33759038D01*
X-54398419Y-33779250D01*
X-54393203Y-33800074D01*
X-54390053Y-33821309D01*
X-54389000Y-33842750D01*
X-54389000Y-34280250D01*
X-54390053Y-34301691D01*
X-54393203Y-34322926D01*
X-54398419Y-34343750D01*
X-54405651Y-34363962D01*
X-54414830Y-34383368D01*
X-54425866Y-34401781D01*
X-54438654Y-34419024D01*
X-54453070Y-34434930D01*
X-54468976Y-34449346D01*
X-54486219Y-34462134D01*
X-54504632Y-34473170D01*
X-54524038Y-34482349D01*
X-54544250Y-34489581D01*
X-54565074Y-34494797D01*
X-54586309Y-34497947D01*
X-54607750Y-34499000D01*
X-55120250Y-34499000D01*
X-55141691Y-34497947D01*
X-55162926Y-34494797D01*
X-55183750Y-34489581D01*
X-55203962Y-34482349D01*
X-55223368Y-34473170D01*
X-55241781Y-34462134D01*
X-55259024Y-34449346D01*
X-55274930Y-34434930D01*
X-55289346Y-34419024D01*
X-55302134Y-34401781D01*
X-55313170Y-34383368D01*
X-55322349Y-34363962D01*
X-55329581Y-34343750D01*
X-55334797Y-34322926D01*
X-55337947Y-34301691D01*
X-55339000Y-34280250D01*
X-55339000Y-33842750D01*
X-55337947Y-33821309D01*
X-55334797Y-33800074D01*
X-55329581Y-33779250D01*
X-55322349Y-33759038D01*
X-55313170Y-33739632D01*
X-55302134Y-33721219D01*
X-55289346Y-33703976D01*
X-55274930Y-33688070D01*
X-55259024Y-33673654D01*
X-55241781Y-33660866D01*
X-55223368Y-33649830D01*
X-55203962Y-33640651D01*
X-55183750Y-33633419D01*
X-55162926Y-33628203D01*
X-55141691Y-33625053D01*
X-55120250Y-33624000D01*
X-54607750Y-33624000D01*
X-54586309Y-33625053D01*
G37*
G36*
X-54586309Y-32050053D02*
G01*
X-54565074Y-32053203D01*
X-54544250Y-32058419D01*
X-54524038Y-32065651D01*
X-54504632Y-32074830D01*
X-54486219Y-32085866D01*
X-54468976Y-32098654D01*
X-54453070Y-32113070D01*
X-54438654Y-32128976D01*
X-54425866Y-32146219D01*
X-54414830Y-32164632D01*
X-54405651Y-32184038D01*
X-54398419Y-32204250D01*
X-54393203Y-32225074D01*
X-54390053Y-32246309D01*
X-54389000Y-32267750D01*
X-54389000Y-32705250D01*
X-54390053Y-32726691D01*
X-54393203Y-32747926D01*
X-54398419Y-32768750D01*
X-54405651Y-32788962D01*
X-54414830Y-32808368D01*
X-54425866Y-32826781D01*
X-54438654Y-32844024D01*
X-54453070Y-32859930D01*
X-54468976Y-32874346D01*
X-54486219Y-32887134D01*
X-54504632Y-32898170D01*
X-54524038Y-32907349D01*
X-54544250Y-32914581D01*
X-54565074Y-32919797D01*
X-54586309Y-32922947D01*
X-54607750Y-32924000D01*
X-55120250Y-32924000D01*
X-55141691Y-32922947D01*
X-55162926Y-32919797D01*
X-55183750Y-32914581D01*
X-55203962Y-32907349D01*
X-55223368Y-32898170D01*
X-55241781Y-32887134D01*
X-55259024Y-32874346D01*
X-55274930Y-32859930D01*
X-55289346Y-32844024D01*
X-55302134Y-32826781D01*
X-55313170Y-32808368D01*
X-55322349Y-32788962D01*
X-55329581Y-32768750D01*
X-55334797Y-32747926D01*
X-55337947Y-32726691D01*
X-55339000Y-32705250D01*
X-55339000Y-32267750D01*
X-55337947Y-32246309D01*
X-55334797Y-32225074D01*
X-55329581Y-32204250D01*
X-55322349Y-32184038D01*
X-55313170Y-32164632D01*
X-55302134Y-32146219D01*
X-55289346Y-32128976D01*
X-55274930Y-32113070D01*
X-55259024Y-32098654D01*
X-55241781Y-32085866D01*
X-55223368Y-32074830D01*
X-55203962Y-32065651D01*
X-55183750Y-32058419D01*
X-55162926Y-32053203D01*
X-55141691Y-32050053D01*
X-55120250Y-32049000D01*
X-54607750Y-32049000D01*
X-54586309Y-32050053D01*
G37*
G36*
X-52300309Y-33625053D02*
G01*
X-52279074Y-33628203D01*
X-52258250Y-33633419D01*
X-52238038Y-33640651D01*
X-52218632Y-33649830D01*
X-52200219Y-33660866D01*
X-52182976Y-33673654D01*
X-52167070Y-33688070D01*
X-52152654Y-33703976D01*
X-52139866Y-33721219D01*
X-52128830Y-33739632D01*
X-52119651Y-33759038D01*
X-52112419Y-33779250D01*
X-52107203Y-33800074D01*
X-52104053Y-33821309D01*
X-52103000Y-33842750D01*
X-52103000Y-34280250D01*
X-52104053Y-34301691D01*
X-52107203Y-34322926D01*
X-52112419Y-34343750D01*
X-52119651Y-34363962D01*
X-52128830Y-34383368D01*
X-52139866Y-34401781D01*
X-52152654Y-34419024D01*
X-52167070Y-34434930D01*
X-52182976Y-34449346D01*
X-52200219Y-34462134D01*
X-52218632Y-34473170D01*
X-52238038Y-34482349D01*
X-52258250Y-34489581D01*
X-52279074Y-34494797D01*
X-52300309Y-34497947D01*
X-52321750Y-34499000D01*
X-52834250Y-34499000D01*
X-52855691Y-34497947D01*
X-52876926Y-34494797D01*
X-52897750Y-34489581D01*
X-52917962Y-34482349D01*
X-52937368Y-34473170D01*
X-52955781Y-34462134D01*
X-52973024Y-34449346D01*
X-52988930Y-34434930D01*
X-53003346Y-34419024D01*
X-53016134Y-34401781D01*
X-53027170Y-34383368D01*
X-53036349Y-34363962D01*
X-53043581Y-34343750D01*
X-53048797Y-34322926D01*
X-53051947Y-34301691D01*
X-53053000Y-34280250D01*
X-53053000Y-33842750D01*
X-53051947Y-33821309D01*
X-53048797Y-33800074D01*
X-53043581Y-33779250D01*
X-53036349Y-33759038D01*
X-53027170Y-33739632D01*
X-53016134Y-33721219D01*
X-53003346Y-33703976D01*
X-52988930Y-33688070D01*
X-52973024Y-33673654D01*
X-52955781Y-33660866D01*
X-52937368Y-33649830D01*
X-52917962Y-33640651D01*
X-52897750Y-33633419D01*
X-52876926Y-33628203D01*
X-52855691Y-33625053D01*
X-52834250Y-33624000D01*
X-52321750Y-33624000D01*
X-52300309Y-33625053D01*
G37*
G36*
X-52300309Y-32050053D02*
G01*
X-52279074Y-32053203D01*
X-52258250Y-32058419D01*
X-52238038Y-32065651D01*
X-52218632Y-32074830D01*
X-52200219Y-32085866D01*
X-52182976Y-32098654D01*
X-52167070Y-32113070D01*
X-52152654Y-32128976D01*
X-52139866Y-32146219D01*
X-52128830Y-32164632D01*
X-52119651Y-32184038D01*
X-52112419Y-32204250D01*
X-52107203Y-32225074D01*
X-52104053Y-32246309D01*
X-52103000Y-32267750D01*
X-52103000Y-32705250D01*
X-52104053Y-32726691D01*
X-52107203Y-32747926D01*
X-52112419Y-32768750D01*
X-52119651Y-32788962D01*
X-52128830Y-32808368D01*
X-52139866Y-32826781D01*
X-52152654Y-32844024D01*
X-52167070Y-32859930D01*
X-52182976Y-32874346D01*
X-52200219Y-32887134D01*
X-52218632Y-32898170D01*
X-52238038Y-32907349D01*
X-52258250Y-32914581D01*
X-52279074Y-32919797D01*
X-52300309Y-32922947D01*
X-52321750Y-32924000D01*
X-52834250Y-32924000D01*
X-52855691Y-32922947D01*
X-52876926Y-32919797D01*
X-52897750Y-32914581D01*
X-52917962Y-32907349D01*
X-52937368Y-32898170D01*
X-52955781Y-32887134D01*
X-52973024Y-32874346D01*
X-52988930Y-32859930D01*
X-53003346Y-32844024D01*
X-53016134Y-32826781D01*
X-53027170Y-32808368D01*
X-53036349Y-32788962D01*
X-53043581Y-32768750D01*
X-53048797Y-32747926D01*
X-53051947Y-32726691D01*
X-53053000Y-32705250D01*
X-53053000Y-32267750D01*
X-53051947Y-32246309D01*
X-53048797Y-32225074D01*
X-53043581Y-32204250D01*
X-53036349Y-32184038D01*
X-53027170Y-32164632D01*
X-53016134Y-32146219D01*
X-53003346Y-32128976D01*
X-52988930Y-32113070D01*
X-52973024Y-32098654D01*
X-52955781Y-32085866D01*
X-52937368Y-32074830D01*
X-52917962Y-32065651D01*
X-52897750Y-32058419D01*
X-52876926Y-32053203D01*
X-52855691Y-32050053D01*
X-52834250Y-32049000D01*
X-52321750Y-32049000D01*
X-52300309Y-32050053D01*
G37*
G36*
X-50014309Y-33625053D02*
G01*
X-49993074Y-33628203D01*
X-49972250Y-33633419D01*
X-49952038Y-33640651D01*
X-49932632Y-33649830D01*
X-49914219Y-33660866D01*
X-49896976Y-33673654D01*
X-49881070Y-33688070D01*
X-49866654Y-33703976D01*
X-49853866Y-33721219D01*
X-49842830Y-33739632D01*
X-49833651Y-33759038D01*
X-49826419Y-33779250D01*
X-49821203Y-33800074D01*
X-49818053Y-33821309D01*
X-49817000Y-33842750D01*
X-49817000Y-34280250D01*
X-49818053Y-34301691D01*
X-49821203Y-34322926D01*
X-49826419Y-34343750D01*
X-49833651Y-34363962D01*
X-49842830Y-34383368D01*
X-49853866Y-34401781D01*
X-49866654Y-34419024D01*
X-49881070Y-34434930D01*
X-49896976Y-34449346D01*
X-49914219Y-34462134D01*
X-49932632Y-34473170D01*
X-49952038Y-34482349D01*
X-49972250Y-34489581D01*
X-49993074Y-34494797D01*
X-50014309Y-34497947D01*
X-50035750Y-34499000D01*
X-50548250Y-34499000D01*
X-50569691Y-34497947D01*
X-50590926Y-34494797D01*
X-50611750Y-34489581D01*
X-50631962Y-34482349D01*
X-50651368Y-34473170D01*
X-50669781Y-34462134D01*
X-50687024Y-34449346D01*
X-50702930Y-34434930D01*
X-50717346Y-34419024D01*
X-50730134Y-34401781D01*
X-50741170Y-34383368D01*
X-50750349Y-34363962D01*
X-50757581Y-34343750D01*
X-50762797Y-34322926D01*
X-50765947Y-34301691D01*
X-50767000Y-34280250D01*
X-50767000Y-33842750D01*
X-50765947Y-33821309D01*
X-50762797Y-33800074D01*
X-50757581Y-33779250D01*
X-50750349Y-33759038D01*
X-50741170Y-33739632D01*
X-50730134Y-33721219D01*
X-50717346Y-33703976D01*
X-50702930Y-33688070D01*
X-50687024Y-33673654D01*
X-50669781Y-33660866D01*
X-50651368Y-33649830D01*
X-50631962Y-33640651D01*
X-50611750Y-33633419D01*
X-50590926Y-33628203D01*
X-50569691Y-33625053D01*
X-50548250Y-33624000D01*
X-50035750Y-33624000D01*
X-50014309Y-33625053D01*
G37*
G36*
X-50014309Y-32050053D02*
G01*
X-49993074Y-32053203D01*
X-49972250Y-32058419D01*
X-49952038Y-32065651D01*
X-49932632Y-32074830D01*
X-49914219Y-32085866D01*
X-49896976Y-32098654D01*
X-49881070Y-32113070D01*
X-49866654Y-32128976D01*
X-49853866Y-32146219D01*
X-49842830Y-32164632D01*
X-49833651Y-32184038D01*
X-49826419Y-32204250D01*
X-49821203Y-32225074D01*
X-49818053Y-32246309D01*
X-49817000Y-32267750D01*
X-49817000Y-32705250D01*
X-49818053Y-32726691D01*
X-49821203Y-32747926D01*
X-49826419Y-32768750D01*
X-49833651Y-32788962D01*
X-49842830Y-32808368D01*
X-49853866Y-32826781D01*
X-49866654Y-32844024D01*
X-49881070Y-32859930D01*
X-49896976Y-32874346D01*
X-49914219Y-32887134D01*
X-49932632Y-32898170D01*
X-49952038Y-32907349D01*
X-49972250Y-32914581D01*
X-49993074Y-32919797D01*
X-50014309Y-32922947D01*
X-50035750Y-32924000D01*
X-50548250Y-32924000D01*
X-50569691Y-32922947D01*
X-50590926Y-32919797D01*
X-50611750Y-32914581D01*
X-50631962Y-32907349D01*
X-50651368Y-32898170D01*
X-50669781Y-32887134D01*
X-50687024Y-32874346D01*
X-50702930Y-32859930D01*
X-50717346Y-32844024D01*
X-50730134Y-32826781D01*
X-50741170Y-32808368D01*
X-50750349Y-32788962D01*
X-50757581Y-32768750D01*
X-50762797Y-32747926D01*
X-50765947Y-32726691D01*
X-50767000Y-32705250D01*
X-50767000Y-32267750D01*
X-50765947Y-32246309D01*
X-50762797Y-32225074D01*
X-50757581Y-32204250D01*
X-50750349Y-32184038D01*
X-50741170Y-32164632D01*
X-50730134Y-32146219D01*
X-50717346Y-32128976D01*
X-50702930Y-32113070D01*
X-50687024Y-32098654D01*
X-50669781Y-32085866D01*
X-50651368Y-32074830D01*
X-50631962Y-32065651D01*
X-50611750Y-32058419D01*
X-50590926Y-32053203D01*
X-50569691Y-32050053D01*
X-50548250Y-32049000D01*
X-50035750Y-32049000D01*
X-50014309Y-32050053D01*
G37*
G36*
X-47728309Y-33599553D02*
G01*
X-47707074Y-33602703D01*
X-47686250Y-33607919D01*
X-47666038Y-33615151D01*
X-47646632Y-33624330D01*
X-47628219Y-33635366D01*
X-47610976Y-33648154D01*
X-47595070Y-33662570D01*
X-47580654Y-33678476D01*
X-47567866Y-33695719D01*
X-47556830Y-33714132D01*
X-47547651Y-33733538D01*
X-47540419Y-33753750D01*
X-47535203Y-33774574D01*
X-47532053Y-33795809D01*
X-47531000Y-33817250D01*
X-47531000Y-34254750D01*
X-47532053Y-34276191D01*
X-47535203Y-34297426D01*
X-47540419Y-34318250D01*
X-47547651Y-34338462D01*
X-47556830Y-34357868D01*
X-47567866Y-34376281D01*
X-47580654Y-34393524D01*
X-47595070Y-34409430D01*
X-47610976Y-34423846D01*
X-47628219Y-34436634D01*
X-47646632Y-34447670D01*
X-47666038Y-34456849D01*
X-47686250Y-34464081D01*
X-47707074Y-34469297D01*
X-47728309Y-34472447D01*
X-47749750Y-34473500D01*
X-48262250Y-34473500D01*
X-48283691Y-34472447D01*
X-48304926Y-34469297D01*
X-48325750Y-34464081D01*
X-48345962Y-34456849D01*
X-48365368Y-34447670D01*
X-48383781Y-34436634D01*
X-48401024Y-34423846D01*
X-48416930Y-34409430D01*
X-48431346Y-34393524D01*
X-48444134Y-34376281D01*
X-48455170Y-34357868D01*
X-48464349Y-34338462D01*
X-48471581Y-34318250D01*
X-48476797Y-34297426D01*
X-48479947Y-34276191D01*
X-48481000Y-34254750D01*
X-48481000Y-33817250D01*
X-48479947Y-33795809D01*
X-48476797Y-33774574D01*
X-48471581Y-33753750D01*
X-48464349Y-33733538D01*
X-48455170Y-33714132D01*
X-48444134Y-33695719D01*
X-48431346Y-33678476D01*
X-48416930Y-33662570D01*
X-48401024Y-33648154D01*
X-48383781Y-33635366D01*
X-48365368Y-33624330D01*
X-48345962Y-33615151D01*
X-48325750Y-33607919D01*
X-48304926Y-33602703D01*
X-48283691Y-33599553D01*
X-48262250Y-33598500D01*
X-47749750Y-33598500D01*
X-47728309Y-33599553D01*
G37*
G36*
X-47728309Y-32024553D02*
G01*
X-47707074Y-32027703D01*
X-47686250Y-32032919D01*
X-47666038Y-32040151D01*
X-47646632Y-32049330D01*
X-47628219Y-32060366D01*
X-47610976Y-32073154D01*
X-47595070Y-32087570D01*
X-47580654Y-32103476D01*
X-47567866Y-32120719D01*
X-47556830Y-32139132D01*
X-47547651Y-32158538D01*
X-47540419Y-32178750D01*
X-47535203Y-32199574D01*
X-47532053Y-32220809D01*
X-47531000Y-32242250D01*
X-47531000Y-32679750D01*
X-47532053Y-32701191D01*
X-47535203Y-32722426D01*
X-47540419Y-32743250D01*
X-47547651Y-32763462D01*
X-47556830Y-32782868D01*
X-47567866Y-32801281D01*
X-47580654Y-32818524D01*
X-47595070Y-32834430D01*
X-47610976Y-32848846D01*
X-47628219Y-32861634D01*
X-47646632Y-32872670D01*
X-47666038Y-32881849D01*
X-47686250Y-32889081D01*
X-47707074Y-32894297D01*
X-47728309Y-32897447D01*
X-47749750Y-32898500D01*
X-48262250Y-32898500D01*
X-48283691Y-32897447D01*
X-48304926Y-32894297D01*
X-48325750Y-32889081D01*
X-48345962Y-32881849D01*
X-48365368Y-32872670D01*
X-48383781Y-32861634D01*
X-48401024Y-32848846D01*
X-48416930Y-32834430D01*
X-48431346Y-32818524D01*
X-48444134Y-32801281D01*
X-48455170Y-32782868D01*
X-48464349Y-32763462D01*
X-48471581Y-32743250D01*
X-48476797Y-32722426D01*
X-48479947Y-32701191D01*
X-48481000Y-32679750D01*
X-48481000Y-32242250D01*
X-48479947Y-32220809D01*
X-48476797Y-32199574D01*
X-48471581Y-32178750D01*
X-48464349Y-32158538D01*
X-48455170Y-32139132D01*
X-48444134Y-32120719D01*
X-48431346Y-32103476D01*
X-48416930Y-32087570D01*
X-48401024Y-32073154D01*
X-48383781Y-32060366D01*
X-48365368Y-32049330D01*
X-48345962Y-32040151D01*
X-48325750Y-32032919D01*
X-48304926Y-32027703D01*
X-48283691Y-32024553D01*
X-48262250Y-32023500D01*
X-47749750Y-32023500D01*
X-47728309Y-32024553D01*
G37*
G36*
X-54383858Y-30169174D02*
G01*
X-54360197Y-30172684D01*
X-54336993Y-30178496D01*
X-54314471Y-30186554D01*
X-54292847Y-30196782D01*
X-54272330Y-30209079D01*
X-54253117Y-30223329D01*
X-54235393Y-30239393D01*
X-54219329Y-30257117D01*
X-54205079Y-30276330D01*
X-54192782Y-30296847D01*
X-54182554Y-30318471D01*
X-54174496Y-30340993D01*
X-54168684Y-30364197D01*
X-54165174Y-30387858D01*
X-54164000Y-30411750D01*
X-54164000Y-30899250D01*
X-54165174Y-30923142D01*
X-54168684Y-30946803D01*
X-54174496Y-30970007D01*
X-54182554Y-30992529D01*
X-54192782Y-31014153D01*
X-54205079Y-31034670D01*
X-54219329Y-31053883D01*
X-54235393Y-31071607D01*
X-54253117Y-31087671D01*
X-54272330Y-31101921D01*
X-54292847Y-31114218D01*
X-54314471Y-31124446D01*
X-54336993Y-31132504D01*
X-54360197Y-31138316D01*
X-54383858Y-31141826D01*
X-54407750Y-31143000D01*
X-55320250Y-31143000D01*
X-55344142Y-31141826D01*
X-55367803Y-31138316D01*
X-55391007Y-31132504D01*
X-55413529Y-31124446D01*
X-55435153Y-31114218D01*
X-55455670Y-31101921D01*
X-55474883Y-31087671D01*
X-55492607Y-31071607D01*
X-55508671Y-31053883D01*
X-55522921Y-31034670D01*
X-55535218Y-31014153D01*
X-55545446Y-30992529D01*
X-55553504Y-30970007D01*
X-55559316Y-30946803D01*
X-55562826Y-30923142D01*
X-55564000Y-30899250D01*
X-55564000Y-30411750D01*
X-55562826Y-30387858D01*
X-55559316Y-30364197D01*
X-55553504Y-30340993D01*
X-55545446Y-30318471D01*
X-55535218Y-30296847D01*
X-55522921Y-30276330D01*
X-55508671Y-30257117D01*
X-55492607Y-30239393D01*
X-55474883Y-30223329D01*
X-55455670Y-30209079D01*
X-55435153Y-30196782D01*
X-55413529Y-30186554D01*
X-55391007Y-30178496D01*
X-55367803Y-30172684D01*
X-55344142Y-30169174D01*
X-55320250Y-30168000D01*
X-54407750Y-30168000D01*
X-54383858Y-30169174D01*
G37*
G36*
X-54383858Y-28294174D02*
G01*
X-54360197Y-28297684D01*
X-54336993Y-28303496D01*
X-54314471Y-28311554D01*
X-54292847Y-28321782D01*
X-54272330Y-28334079D01*
X-54253117Y-28348329D01*
X-54235393Y-28364393D01*
X-54219329Y-28382117D01*
X-54205079Y-28401330D01*
X-54192782Y-28421847D01*
X-54182554Y-28443471D01*
X-54174496Y-28465993D01*
X-54168684Y-28489197D01*
X-54165174Y-28512858D01*
X-54164000Y-28536750D01*
X-54164000Y-29024250D01*
X-54165174Y-29048142D01*
X-54168684Y-29071803D01*
X-54174496Y-29095007D01*
X-54182554Y-29117529D01*
X-54192782Y-29139153D01*
X-54205079Y-29159670D01*
X-54219329Y-29178883D01*
X-54235393Y-29196607D01*
X-54253117Y-29212671D01*
X-54272330Y-29226921D01*
X-54292847Y-29239218D01*
X-54314471Y-29249446D01*
X-54336993Y-29257504D01*
X-54360197Y-29263316D01*
X-54383858Y-29266826D01*
X-54407750Y-29268000D01*
X-55320250Y-29268000D01*
X-55344142Y-29266826D01*
X-55367803Y-29263316D01*
X-55391007Y-29257504D01*
X-55413529Y-29249446D01*
X-55435153Y-29239218D01*
X-55455670Y-29226921D01*
X-55474883Y-29212671D01*
X-55492607Y-29196607D01*
X-55508671Y-29178883D01*
X-55522921Y-29159670D01*
X-55535218Y-29139153D01*
X-55545446Y-29117529D01*
X-55553504Y-29095007D01*
X-55559316Y-29071803D01*
X-55562826Y-29048142D01*
X-55564000Y-29024250D01*
X-55564000Y-28536750D01*
X-55562826Y-28512858D01*
X-55559316Y-28489197D01*
X-55553504Y-28465993D01*
X-55545446Y-28443471D01*
X-55535218Y-28421847D01*
X-55522921Y-28401330D01*
X-55508671Y-28382117D01*
X-55492607Y-28364393D01*
X-55474883Y-28348329D01*
X-55455670Y-28334079D01*
X-55435153Y-28321782D01*
X-55413529Y-28311554D01*
X-55391007Y-28303496D01*
X-55367803Y-28297684D01*
X-55344142Y-28294174D01*
X-55320250Y-28293000D01*
X-54407750Y-28293000D01*
X-54383858Y-28294174D01*
G37*
G36*
X-52097858Y-30169174D02*
G01*
X-52074197Y-30172684D01*
X-52050993Y-30178496D01*
X-52028471Y-30186554D01*
X-52006847Y-30196782D01*
X-51986330Y-30209079D01*
X-51967117Y-30223329D01*
X-51949393Y-30239393D01*
X-51933329Y-30257117D01*
X-51919079Y-30276330D01*
X-51906782Y-30296847D01*
X-51896554Y-30318471D01*
X-51888496Y-30340993D01*
X-51882684Y-30364197D01*
X-51879174Y-30387858D01*
X-51878000Y-30411750D01*
X-51878000Y-30899250D01*
X-51879174Y-30923142D01*
X-51882684Y-30946803D01*
X-51888496Y-30970007D01*
X-51896554Y-30992529D01*
X-51906782Y-31014153D01*
X-51919079Y-31034670D01*
X-51933329Y-31053883D01*
X-51949393Y-31071607D01*
X-51967117Y-31087671D01*
X-51986330Y-31101921D01*
X-52006847Y-31114218D01*
X-52028471Y-31124446D01*
X-52050993Y-31132504D01*
X-52074197Y-31138316D01*
X-52097858Y-31141826D01*
X-52121750Y-31143000D01*
X-53034250Y-31143000D01*
X-53058142Y-31141826D01*
X-53081803Y-31138316D01*
X-53105007Y-31132504D01*
X-53127529Y-31124446D01*
X-53149153Y-31114218D01*
X-53169670Y-31101921D01*
X-53188883Y-31087671D01*
X-53206607Y-31071607D01*
X-53222671Y-31053883D01*
X-53236921Y-31034670D01*
X-53249218Y-31014153D01*
X-53259446Y-30992529D01*
X-53267504Y-30970007D01*
X-53273316Y-30946803D01*
X-53276826Y-30923142D01*
X-53278000Y-30899250D01*
X-53278000Y-30411750D01*
X-53276826Y-30387858D01*
X-53273316Y-30364197D01*
X-53267504Y-30340993D01*
X-53259446Y-30318471D01*
X-53249218Y-30296847D01*
X-53236921Y-30276330D01*
X-53222671Y-30257117D01*
X-53206607Y-30239393D01*
X-53188883Y-30223329D01*
X-53169670Y-30209079D01*
X-53149153Y-30196782D01*
X-53127529Y-30186554D01*
X-53105007Y-30178496D01*
X-53081803Y-30172684D01*
X-53058142Y-30169174D01*
X-53034250Y-30168000D01*
X-52121750Y-30168000D01*
X-52097858Y-30169174D01*
G37*
G36*
X-52097858Y-28294174D02*
G01*
X-52074197Y-28297684D01*
X-52050993Y-28303496D01*
X-52028471Y-28311554D01*
X-52006847Y-28321782D01*
X-51986330Y-28334079D01*
X-51967117Y-28348329D01*
X-51949393Y-28364393D01*
X-51933329Y-28382117D01*
X-51919079Y-28401330D01*
X-51906782Y-28421847D01*
X-51896554Y-28443471D01*
X-51888496Y-28465993D01*
X-51882684Y-28489197D01*
X-51879174Y-28512858D01*
X-51878000Y-28536750D01*
X-51878000Y-29024250D01*
X-51879174Y-29048142D01*
X-51882684Y-29071803D01*
X-51888496Y-29095007D01*
X-51896554Y-29117529D01*
X-51906782Y-29139153D01*
X-51919079Y-29159670D01*
X-51933329Y-29178883D01*
X-51949393Y-29196607D01*
X-51967117Y-29212671D01*
X-51986330Y-29226921D01*
X-52006847Y-29239218D01*
X-52028471Y-29249446D01*
X-52050993Y-29257504D01*
X-52074197Y-29263316D01*
X-52097858Y-29266826D01*
X-52121750Y-29268000D01*
X-53034250Y-29268000D01*
X-53058142Y-29266826D01*
X-53081803Y-29263316D01*
X-53105007Y-29257504D01*
X-53127529Y-29249446D01*
X-53149153Y-29239218D01*
X-53169670Y-29226921D01*
X-53188883Y-29212671D01*
X-53206607Y-29196607D01*
X-53222671Y-29178883D01*
X-53236921Y-29159670D01*
X-53249218Y-29139153D01*
X-53259446Y-29117529D01*
X-53267504Y-29095007D01*
X-53273316Y-29071803D01*
X-53276826Y-29048142D01*
X-53278000Y-29024250D01*
X-53278000Y-28536750D01*
X-53276826Y-28512858D01*
X-53273316Y-28489197D01*
X-53267504Y-28465993D01*
X-53259446Y-28443471D01*
X-53249218Y-28421847D01*
X-53236921Y-28401330D01*
X-53222671Y-28382117D01*
X-53206607Y-28364393D01*
X-53188883Y-28348329D01*
X-53169670Y-28334079D01*
X-53149153Y-28321782D01*
X-53127529Y-28311554D01*
X-53105007Y-28303496D01*
X-53081803Y-28297684D01*
X-53058142Y-28294174D01*
X-53034250Y-28293000D01*
X-52121750Y-28293000D01*
X-52097858Y-28294174D01*
G37*
G36*
X-49811858Y-30169174D02*
G01*
X-49788197Y-30172684D01*
X-49764993Y-30178496D01*
X-49742471Y-30186554D01*
X-49720847Y-30196782D01*
X-49700330Y-30209079D01*
X-49681117Y-30223329D01*
X-49663393Y-30239393D01*
X-49647329Y-30257117D01*
X-49633079Y-30276330D01*
X-49620782Y-30296847D01*
X-49610554Y-30318471D01*
X-49602496Y-30340993D01*
X-49596684Y-30364197D01*
X-49593174Y-30387858D01*
X-49592000Y-30411750D01*
X-49592000Y-30899250D01*
X-49593174Y-30923142D01*
X-49596684Y-30946803D01*
X-49602496Y-30970007D01*
X-49610554Y-30992529D01*
X-49620782Y-31014153D01*
X-49633079Y-31034670D01*
X-49647329Y-31053883D01*
X-49663393Y-31071607D01*
X-49681117Y-31087671D01*
X-49700330Y-31101921D01*
X-49720847Y-31114218D01*
X-49742471Y-31124446D01*
X-49764993Y-31132504D01*
X-49788197Y-31138316D01*
X-49811858Y-31141826D01*
X-49835750Y-31143000D01*
X-50748250Y-31143000D01*
X-50772142Y-31141826D01*
X-50795803Y-31138316D01*
X-50819007Y-31132504D01*
X-50841529Y-31124446D01*
X-50863153Y-31114218D01*
X-50883670Y-31101921D01*
X-50902883Y-31087671D01*
X-50920607Y-31071607D01*
X-50936671Y-31053883D01*
X-50950921Y-31034670D01*
X-50963218Y-31014153D01*
X-50973446Y-30992529D01*
X-50981504Y-30970007D01*
X-50987316Y-30946803D01*
X-50990826Y-30923142D01*
X-50992000Y-30899250D01*
X-50992000Y-30411750D01*
X-50990826Y-30387858D01*
X-50987316Y-30364197D01*
X-50981504Y-30340993D01*
X-50973446Y-30318471D01*
X-50963218Y-30296847D01*
X-50950921Y-30276330D01*
X-50936671Y-30257117D01*
X-50920607Y-30239393D01*
X-50902883Y-30223329D01*
X-50883670Y-30209079D01*
X-50863153Y-30196782D01*
X-50841529Y-30186554D01*
X-50819007Y-30178496D01*
X-50795803Y-30172684D01*
X-50772142Y-30169174D01*
X-50748250Y-30168000D01*
X-49835750Y-30168000D01*
X-49811858Y-30169174D01*
G37*
G36*
X-49811858Y-28294174D02*
G01*
X-49788197Y-28297684D01*
X-49764993Y-28303496D01*
X-49742471Y-28311554D01*
X-49720847Y-28321782D01*
X-49700330Y-28334079D01*
X-49681117Y-28348329D01*
X-49663393Y-28364393D01*
X-49647329Y-28382117D01*
X-49633079Y-28401330D01*
X-49620782Y-28421847D01*
X-49610554Y-28443471D01*
X-49602496Y-28465993D01*
X-49596684Y-28489197D01*
X-49593174Y-28512858D01*
X-49592000Y-28536750D01*
X-49592000Y-29024250D01*
X-49593174Y-29048142D01*
X-49596684Y-29071803D01*
X-49602496Y-29095007D01*
X-49610554Y-29117529D01*
X-49620782Y-29139153D01*
X-49633079Y-29159670D01*
X-49647329Y-29178883D01*
X-49663393Y-29196607D01*
X-49681117Y-29212671D01*
X-49700330Y-29226921D01*
X-49720847Y-29239218D01*
X-49742471Y-29249446D01*
X-49764993Y-29257504D01*
X-49788197Y-29263316D01*
X-49811858Y-29266826D01*
X-49835750Y-29268000D01*
X-50748250Y-29268000D01*
X-50772142Y-29266826D01*
X-50795803Y-29263316D01*
X-50819007Y-29257504D01*
X-50841529Y-29249446D01*
X-50863153Y-29239218D01*
X-50883670Y-29226921D01*
X-50902883Y-29212671D01*
X-50920607Y-29196607D01*
X-50936671Y-29178883D01*
X-50950921Y-29159670D01*
X-50963218Y-29139153D01*
X-50973446Y-29117529D01*
X-50981504Y-29095007D01*
X-50987316Y-29071803D01*
X-50990826Y-29048142D01*
X-50992000Y-29024250D01*
X-50992000Y-28536750D01*
X-50990826Y-28512858D01*
X-50987316Y-28489197D01*
X-50981504Y-28465993D01*
X-50973446Y-28443471D01*
X-50963218Y-28421847D01*
X-50950921Y-28401330D01*
X-50936671Y-28382117D01*
X-50920607Y-28364393D01*
X-50902883Y-28348329D01*
X-50883670Y-28334079D01*
X-50863153Y-28321782D01*
X-50841529Y-28311554D01*
X-50819007Y-28303496D01*
X-50795803Y-28297684D01*
X-50772142Y-28294174D01*
X-50748250Y-28293000D01*
X-49835750Y-28293000D01*
X-49811858Y-28294174D01*
G37*
G36*
X-47525858Y-30169174D02*
G01*
X-47502197Y-30172684D01*
X-47478993Y-30178496D01*
X-47456471Y-30186554D01*
X-47434847Y-30196782D01*
X-47414330Y-30209079D01*
X-47395117Y-30223329D01*
X-47377393Y-30239393D01*
X-47361329Y-30257117D01*
X-47347079Y-30276330D01*
X-47334782Y-30296847D01*
X-47324554Y-30318471D01*
X-47316496Y-30340993D01*
X-47310684Y-30364197D01*
X-47307174Y-30387858D01*
X-47306000Y-30411750D01*
X-47306000Y-30899250D01*
X-47307174Y-30923142D01*
X-47310684Y-30946803D01*
X-47316496Y-30970007D01*
X-47324554Y-30992529D01*
X-47334782Y-31014153D01*
X-47347079Y-31034670D01*
X-47361329Y-31053883D01*
X-47377393Y-31071607D01*
X-47395117Y-31087671D01*
X-47414330Y-31101921D01*
X-47434847Y-31114218D01*
X-47456471Y-31124446D01*
X-47478993Y-31132504D01*
X-47502197Y-31138316D01*
X-47525858Y-31141826D01*
X-47549750Y-31143000D01*
X-48462250Y-31143000D01*
X-48486142Y-31141826D01*
X-48509803Y-31138316D01*
X-48533007Y-31132504D01*
X-48555529Y-31124446D01*
X-48577153Y-31114218D01*
X-48597670Y-31101921D01*
X-48616883Y-31087671D01*
X-48634607Y-31071607D01*
X-48650671Y-31053883D01*
X-48664921Y-31034670D01*
X-48677218Y-31014153D01*
X-48687446Y-30992529D01*
X-48695504Y-30970007D01*
X-48701316Y-30946803D01*
X-48704826Y-30923142D01*
X-48706000Y-30899250D01*
X-48706000Y-30411750D01*
X-48704826Y-30387858D01*
X-48701316Y-30364197D01*
X-48695504Y-30340993D01*
X-48687446Y-30318471D01*
X-48677218Y-30296847D01*
X-48664921Y-30276330D01*
X-48650671Y-30257117D01*
X-48634607Y-30239393D01*
X-48616883Y-30223329D01*
X-48597670Y-30209079D01*
X-48577153Y-30196782D01*
X-48555529Y-30186554D01*
X-48533007Y-30178496D01*
X-48509803Y-30172684D01*
X-48486142Y-30169174D01*
X-48462250Y-30168000D01*
X-47549750Y-30168000D01*
X-47525858Y-30169174D01*
G37*
G36*
X-47525858Y-28294174D02*
G01*
X-47502197Y-28297684D01*
X-47478993Y-28303496D01*
X-47456471Y-28311554D01*
X-47434847Y-28321782D01*
X-47414330Y-28334079D01*
X-47395117Y-28348329D01*
X-47377393Y-28364393D01*
X-47361329Y-28382117D01*
X-47347079Y-28401330D01*
X-47334782Y-28421847D01*
X-47324554Y-28443471D01*
X-47316496Y-28465993D01*
X-47310684Y-28489197D01*
X-47307174Y-28512858D01*
X-47306000Y-28536750D01*
X-47306000Y-29024250D01*
X-47307174Y-29048142D01*
X-47310684Y-29071803D01*
X-47316496Y-29095007D01*
X-47324554Y-29117529D01*
X-47334782Y-29139153D01*
X-47347079Y-29159670D01*
X-47361329Y-29178883D01*
X-47377393Y-29196607D01*
X-47395117Y-29212671D01*
X-47414330Y-29226921D01*
X-47434847Y-29239218D01*
X-47456471Y-29249446D01*
X-47478993Y-29257504D01*
X-47502197Y-29263316D01*
X-47525858Y-29266826D01*
X-47549750Y-29268000D01*
X-48462250Y-29268000D01*
X-48486142Y-29266826D01*
X-48509803Y-29263316D01*
X-48533007Y-29257504D01*
X-48555529Y-29249446D01*
X-48577153Y-29239218D01*
X-48597670Y-29226921D01*
X-48616883Y-29212671D01*
X-48634607Y-29196607D01*
X-48650671Y-29178883D01*
X-48664921Y-29159670D01*
X-48677218Y-29139153D01*
X-48687446Y-29117529D01*
X-48695504Y-29095007D01*
X-48701316Y-29071803D01*
X-48704826Y-29048142D01*
X-48706000Y-29024250D01*
X-48706000Y-28536750D01*
X-48704826Y-28512858D01*
X-48701316Y-28489197D01*
X-48695504Y-28465993D01*
X-48687446Y-28443471D01*
X-48677218Y-28421847D01*
X-48664921Y-28401330D01*
X-48650671Y-28382117D01*
X-48634607Y-28364393D01*
X-48616883Y-28348329D01*
X-48597670Y-28334079D01*
X-48577153Y-28321782D01*
X-48555529Y-28311554D01*
X-48533007Y-28303496D01*
X-48509803Y-28297684D01*
X-48486142Y-28294174D01*
X-48462250Y-28293000D01*
X-47549750Y-28293000D01*
X-47525858Y-28294174D01*
G37*
M02*
