M48
; DRILL file {KiCad 5.1.5+dfsg1-2build2} date dom 23 ago 2020 11:23:09
; FORMAT={-:-/ absolute / metric / decimal}
; #@! TF.CreationDate,2020-08-23T11:23:09+01:00
; #@! TF.GenerationSoftware,Kicad,Pcbnew,5.1.5+dfsg1-2build2
; #@! TF.FileFunction,Plated,1,2,PTH
FMAT,2
METRIC
T1C0.400
T2C0.800
T3C1.200
%
G90
G05
T1
X-49.784Y-13.97
X-46.228Y-6.604
X-46.228Y-16.002
X-36.068Y-9.398
T2
X-73.508Y-41.55
X-70.968Y-41.55
X-68.428Y-41.55
X-65.888Y-41.55
X-64.368Y6.71
X-63.348Y-41.55
X-61.828Y6.71
X-60.808Y-41.55
X-59.288Y6.71
X-58.268Y-41.55
X-56.748Y6.71
X-55.728Y-41.55
X-54.208Y6.71
X-53.188Y-41.55
X-51.668Y6.71
X-50.648Y-41.55
X-49.128Y6.71
X-46.588Y6.71
X-46.588Y-41.55
X-44.048Y-41.55
X-41.508Y6.71
X-41.508Y-41.55
X-38.968Y6.71
X-38.968Y-41.55
X-36.428Y6.71
X-36.428Y-41.55
X-33.888Y6.71
X-33.888Y-41.55
X-31.348Y6.71
X-31.348Y-41.55
X-28.808Y6.71
X-28.808Y-41.55
T3
X-28.384Y-11.867
X-28.384Y-15.367
X-28.384Y-22.345
X-28.384Y-25.845
X-28.384Y-2.088
X-28.384Y-5.588
T0
M30
