G04 #@! TF.GenerationSoftware,KiCad,Pcbnew,5.1.5+dfsg1-2build2*
G04 #@! TF.CreationDate,2020-08-23T11:23:10+01:00*
G04 #@! TF.ProjectId,psoc6_beacon_gateway,70736f63-365f-4626-9561-636f6e5f6761,rev?*
G04 #@! TF.SameCoordinates,Original*
G04 #@! TF.FileFunction,Soldermask,Bot*
G04 #@! TF.FilePolarity,Negative*
%FSLAX46Y46*%
G04 Gerber Fmt 4.6, Leading zero omitted, Abs format (unit mm)*
G04 Created by KiCad (PCBNEW 5.1.5+dfsg1-2build2) date 2020-08-23 11:23:10*
%MOMM*%
%LPD*%
G04 APERTURE LIST*
%ADD10C,0.100000*%
G04 APERTURE END LIST*
D10*
G36*
X-31198418Y-40712082D02*
G01*
X-31099771Y-40731704D01*
X-30944899Y-40795854D01*
X-30805518Y-40888986D01*
X-30686984Y-41007520D01*
X-30593852Y-41146901D01*
X-30529702Y-41301773D01*
X-30496999Y-41466185D01*
X-30496999Y-41633817D01*
X-30529702Y-41798229D01*
X-30593852Y-41953101D01*
X-30686984Y-42092482D01*
X-30805518Y-42211016D01*
X-30944899Y-42304148D01*
X-31099771Y-42368298D01*
X-31198418Y-42387920D01*
X-31264181Y-42401001D01*
X-31431817Y-42401001D01*
X-31497580Y-42387920D01*
X-31596227Y-42368298D01*
X-31751099Y-42304148D01*
X-31890480Y-42211016D01*
X-32009014Y-42092482D01*
X-32102146Y-41953101D01*
X-32166296Y-41798229D01*
X-32198999Y-41633817D01*
X-32198999Y-41466185D01*
X-32166296Y-41301773D01*
X-32102146Y-41146901D01*
X-32009014Y-41007520D01*
X-31890480Y-40888986D01*
X-31751099Y-40795854D01*
X-31596227Y-40731704D01*
X-31497580Y-40712082D01*
X-31431817Y-40699001D01*
X-31264181Y-40699001D01*
X-31198418Y-40712082D01*
G37*
G36*
X-53038418Y-40712082D02*
G01*
X-52939771Y-40731704D01*
X-52784899Y-40795854D01*
X-52645518Y-40888986D01*
X-52526984Y-41007520D01*
X-52433852Y-41146901D01*
X-52369702Y-41301773D01*
X-52336999Y-41466185D01*
X-52336999Y-41633817D01*
X-52369702Y-41798229D01*
X-52433852Y-41953101D01*
X-52526984Y-42092482D01*
X-52645518Y-42211016D01*
X-52784899Y-42304148D01*
X-52939771Y-42368298D01*
X-53038418Y-42387920D01*
X-53104181Y-42401001D01*
X-53271817Y-42401001D01*
X-53337580Y-42387920D01*
X-53436227Y-42368298D01*
X-53591099Y-42304148D01*
X-53730480Y-42211016D01*
X-53849014Y-42092482D01*
X-53942146Y-41953101D01*
X-54006296Y-41798229D01*
X-54038999Y-41633817D01*
X-54038999Y-41466185D01*
X-54006296Y-41301773D01*
X-53942146Y-41146901D01*
X-53849014Y-41007520D01*
X-53730480Y-40888986D01*
X-53591099Y-40795854D01*
X-53436227Y-40731704D01*
X-53337580Y-40712082D01*
X-53271817Y-40699001D01*
X-53104181Y-40699001D01*
X-53038418Y-40712082D01*
G37*
G36*
X-28658418Y-40712082D02*
G01*
X-28559771Y-40731704D01*
X-28404899Y-40795854D01*
X-28265518Y-40888986D01*
X-28146984Y-41007520D01*
X-28053852Y-41146901D01*
X-27989702Y-41301773D01*
X-27956999Y-41466185D01*
X-27956999Y-41633817D01*
X-27989702Y-41798229D01*
X-28053852Y-41953101D01*
X-28146984Y-42092482D01*
X-28265518Y-42211016D01*
X-28404899Y-42304148D01*
X-28559771Y-42368298D01*
X-28658418Y-42387920D01*
X-28724181Y-42401001D01*
X-28891817Y-42401001D01*
X-28957580Y-42387920D01*
X-29056227Y-42368298D01*
X-29211099Y-42304148D01*
X-29350480Y-42211016D01*
X-29469014Y-42092482D01*
X-29562146Y-41953101D01*
X-29626296Y-41798229D01*
X-29658999Y-41633817D01*
X-29658999Y-41466185D01*
X-29626296Y-41301773D01*
X-29562146Y-41146901D01*
X-29469014Y-41007520D01*
X-29350480Y-40888986D01*
X-29211099Y-40795854D01*
X-29056227Y-40731704D01*
X-28957580Y-40712082D01*
X-28891817Y-40699001D01*
X-28724181Y-40699001D01*
X-28658418Y-40712082D01*
G37*
G36*
X-68278418Y-40712082D02*
G01*
X-68179771Y-40731704D01*
X-68024899Y-40795854D01*
X-67885518Y-40888986D01*
X-67766984Y-41007520D01*
X-67673852Y-41146901D01*
X-67609702Y-41301773D01*
X-67576999Y-41466185D01*
X-67576999Y-41633817D01*
X-67609702Y-41798229D01*
X-67673852Y-41953101D01*
X-67766984Y-42092482D01*
X-67885518Y-42211016D01*
X-68024899Y-42304148D01*
X-68179771Y-42368298D01*
X-68278418Y-42387920D01*
X-68344181Y-42401001D01*
X-68511817Y-42401001D01*
X-68577580Y-42387920D01*
X-68676227Y-42368298D01*
X-68831099Y-42304148D01*
X-68970480Y-42211016D01*
X-69089014Y-42092482D01*
X-69182146Y-41953101D01*
X-69246296Y-41798229D01*
X-69278999Y-41633817D01*
X-69278999Y-41466185D01*
X-69246296Y-41301773D01*
X-69182146Y-41146901D01*
X-69089014Y-41007520D01*
X-68970480Y-40888986D01*
X-68831099Y-40795854D01*
X-68676227Y-40731704D01*
X-68577580Y-40712082D01*
X-68511817Y-40699001D01*
X-68344181Y-40699001D01*
X-68278418Y-40712082D01*
G37*
G36*
X-65738418Y-40712082D02*
G01*
X-65639771Y-40731704D01*
X-65484899Y-40795854D01*
X-65345518Y-40888986D01*
X-65226984Y-41007520D01*
X-65133852Y-41146901D01*
X-65069702Y-41301773D01*
X-65036999Y-41466185D01*
X-65036999Y-41633817D01*
X-65069702Y-41798229D01*
X-65133852Y-41953101D01*
X-65226984Y-42092482D01*
X-65345518Y-42211016D01*
X-65484899Y-42304148D01*
X-65639771Y-42368298D01*
X-65738418Y-42387920D01*
X-65804181Y-42401001D01*
X-65971817Y-42401001D01*
X-66037580Y-42387920D01*
X-66136227Y-42368298D01*
X-66291099Y-42304148D01*
X-66430480Y-42211016D01*
X-66549014Y-42092482D01*
X-66642146Y-41953101D01*
X-66706296Y-41798229D01*
X-66738999Y-41633817D01*
X-66738999Y-41466185D01*
X-66706296Y-41301773D01*
X-66642146Y-41146901D01*
X-66549014Y-41007520D01*
X-66430480Y-40888986D01*
X-66291099Y-40795854D01*
X-66136227Y-40731704D01*
X-66037580Y-40712082D01*
X-65971817Y-40699001D01*
X-65804181Y-40699001D01*
X-65738418Y-40712082D01*
G37*
G36*
X-63198418Y-40712082D02*
G01*
X-63099771Y-40731704D01*
X-62944899Y-40795854D01*
X-62805518Y-40888986D01*
X-62686984Y-41007520D01*
X-62593852Y-41146901D01*
X-62529702Y-41301773D01*
X-62496999Y-41466185D01*
X-62496999Y-41633817D01*
X-62529702Y-41798229D01*
X-62593852Y-41953101D01*
X-62686984Y-42092482D01*
X-62805518Y-42211016D01*
X-62944899Y-42304148D01*
X-63099771Y-42368298D01*
X-63198418Y-42387920D01*
X-63264181Y-42401001D01*
X-63431817Y-42401001D01*
X-63497580Y-42387920D01*
X-63596227Y-42368298D01*
X-63751099Y-42304148D01*
X-63890480Y-42211016D01*
X-64009014Y-42092482D01*
X-64102146Y-41953101D01*
X-64166296Y-41798229D01*
X-64198999Y-41633817D01*
X-64198999Y-41466185D01*
X-64166296Y-41301773D01*
X-64102146Y-41146901D01*
X-64009014Y-41007520D01*
X-63890480Y-40888986D01*
X-63751099Y-40795854D01*
X-63596227Y-40731704D01*
X-63497580Y-40712082D01*
X-63431817Y-40699001D01*
X-63264181Y-40699001D01*
X-63198418Y-40712082D01*
G37*
G36*
X-60658418Y-40712082D02*
G01*
X-60559771Y-40731704D01*
X-60404899Y-40795854D01*
X-60265518Y-40888986D01*
X-60146984Y-41007520D01*
X-60053852Y-41146901D01*
X-59989702Y-41301773D01*
X-59956999Y-41466185D01*
X-59956999Y-41633817D01*
X-59989702Y-41798229D01*
X-60053852Y-41953101D01*
X-60146984Y-42092482D01*
X-60265518Y-42211016D01*
X-60404899Y-42304148D01*
X-60559771Y-42368298D01*
X-60658418Y-42387920D01*
X-60724181Y-42401001D01*
X-60891817Y-42401001D01*
X-60957580Y-42387920D01*
X-61056227Y-42368298D01*
X-61211099Y-42304148D01*
X-61350480Y-42211016D01*
X-61469014Y-42092482D01*
X-61562146Y-41953101D01*
X-61626296Y-41798229D01*
X-61658999Y-41633817D01*
X-61658999Y-41466185D01*
X-61626296Y-41301773D01*
X-61562146Y-41146901D01*
X-61469014Y-41007520D01*
X-61350480Y-40888986D01*
X-61211099Y-40795854D01*
X-61056227Y-40731704D01*
X-60957580Y-40712082D01*
X-60891817Y-40699001D01*
X-60724181Y-40699001D01*
X-60658418Y-40712082D01*
G37*
G36*
X-58118418Y-40712082D02*
G01*
X-58019771Y-40731704D01*
X-57864899Y-40795854D01*
X-57725518Y-40888986D01*
X-57606984Y-41007520D01*
X-57513852Y-41146901D01*
X-57449702Y-41301773D01*
X-57416999Y-41466185D01*
X-57416999Y-41633817D01*
X-57449702Y-41798229D01*
X-57513852Y-41953101D01*
X-57606984Y-42092482D01*
X-57725518Y-42211016D01*
X-57864899Y-42304148D01*
X-58019771Y-42368298D01*
X-58118418Y-42387920D01*
X-58184181Y-42401001D01*
X-58351817Y-42401001D01*
X-58417580Y-42387920D01*
X-58516227Y-42368298D01*
X-58671099Y-42304148D01*
X-58810480Y-42211016D01*
X-58929014Y-42092482D01*
X-59022146Y-41953101D01*
X-59086296Y-41798229D01*
X-59118999Y-41633817D01*
X-59118999Y-41466185D01*
X-59086296Y-41301773D01*
X-59022146Y-41146901D01*
X-58929014Y-41007520D01*
X-58810480Y-40888986D01*
X-58671099Y-40795854D01*
X-58516227Y-40731704D01*
X-58417580Y-40712082D01*
X-58351817Y-40699001D01*
X-58184181Y-40699001D01*
X-58118418Y-40712082D01*
G37*
G36*
X-55578418Y-40712082D02*
G01*
X-55479771Y-40731704D01*
X-55324899Y-40795854D01*
X-55185518Y-40888986D01*
X-55066984Y-41007520D01*
X-54973852Y-41146901D01*
X-54909702Y-41301773D01*
X-54876999Y-41466185D01*
X-54876999Y-41633817D01*
X-54909702Y-41798229D01*
X-54973852Y-41953101D01*
X-55066984Y-42092482D01*
X-55185518Y-42211016D01*
X-55324899Y-42304148D01*
X-55479771Y-42368298D01*
X-55578418Y-42387920D01*
X-55644181Y-42401001D01*
X-55811817Y-42401001D01*
X-55877580Y-42387920D01*
X-55976227Y-42368298D01*
X-56131099Y-42304148D01*
X-56270480Y-42211016D01*
X-56389014Y-42092482D01*
X-56482146Y-41953101D01*
X-56546296Y-41798229D01*
X-56578999Y-41633817D01*
X-56578999Y-41466185D01*
X-56546296Y-41301773D01*
X-56482146Y-41146901D01*
X-56389014Y-41007520D01*
X-56270480Y-40888986D01*
X-56131099Y-40795854D01*
X-55976227Y-40731704D01*
X-55877580Y-40712082D01*
X-55811817Y-40699001D01*
X-55644181Y-40699001D01*
X-55578418Y-40712082D01*
G37*
G36*
X-50498418Y-40712082D02*
G01*
X-50399771Y-40731704D01*
X-50244899Y-40795854D01*
X-50105518Y-40888986D01*
X-49986984Y-41007520D01*
X-49893852Y-41146901D01*
X-49829702Y-41301773D01*
X-49796999Y-41466185D01*
X-49796999Y-41633817D01*
X-49829702Y-41798229D01*
X-49893852Y-41953101D01*
X-49986984Y-42092482D01*
X-50105518Y-42211016D01*
X-50244899Y-42304148D01*
X-50399771Y-42368298D01*
X-50498418Y-42387920D01*
X-50564181Y-42401001D01*
X-50731817Y-42401001D01*
X-50797580Y-42387920D01*
X-50896227Y-42368298D01*
X-51051099Y-42304148D01*
X-51190480Y-42211016D01*
X-51309014Y-42092482D01*
X-51402146Y-41953101D01*
X-51466296Y-41798229D01*
X-51498999Y-41633817D01*
X-51498999Y-41466185D01*
X-51466296Y-41301773D01*
X-51402146Y-41146901D01*
X-51309014Y-41007520D01*
X-51190480Y-40888986D01*
X-51051099Y-40795854D01*
X-50896227Y-40731704D01*
X-50797580Y-40712082D01*
X-50731817Y-40699001D01*
X-50564181Y-40699001D01*
X-50498418Y-40712082D01*
G37*
G36*
X-46438418Y-40712082D02*
G01*
X-46339771Y-40731704D01*
X-46184899Y-40795854D01*
X-46045518Y-40888986D01*
X-45926984Y-41007520D01*
X-45833852Y-41146901D01*
X-45769702Y-41301773D01*
X-45736999Y-41466185D01*
X-45736999Y-41633817D01*
X-45769702Y-41798229D01*
X-45833852Y-41953101D01*
X-45926984Y-42092482D01*
X-46045518Y-42211016D01*
X-46184899Y-42304148D01*
X-46339771Y-42368298D01*
X-46438418Y-42387920D01*
X-46504181Y-42401001D01*
X-46671817Y-42401001D01*
X-46737580Y-42387920D01*
X-46836227Y-42368298D01*
X-46991099Y-42304148D01*
X-47130480Y-42211016D01*
X-47249014Y-42092482D01*
X-47342146Y-41953101D01*
X-47406296Y-41798229D01*
X-47438999Y-41633817D01*
X-47438999Y-41466185D01*
X-47406296Y-41301773D01*
X-47342146Y-41146901D01*
X-47249014Y-41007520D01*
X-47130480Y-40888986D01*
X-46991099Y-40795854D01*
X-46836227Y-40731704D01*
X-46737580Y-40712082D01*
X-46671817Y-40699001D01*
X-46504181Y-40699001D01*
X-46438418Y-40712082D01*
G37*
G36*
X-43898418Y-40712082D02*
G01*
X-43799771Y-40731704D01*
X-43644899Y-40795854D01*
X-43505518Y-40888986D01*
X-43386984Y-41007520D01*
X-43293852Y-41146901D01*
X-43229702Y-41301773D01*
X-43196999Y-41466185D01*
X-43196999Y-41633817D01*
X-43229702Y-41798229D01*
X-43293852Y-41953101D01*
X-43386984Y-42092482D01*
X-43505518Y-42211016D01*
X-43644899Y-42304148D01*
X-43799771Y-42368298D01*
X-43898418Y-42387920D01*
X-43964181Y-42401001D01*
X-44131817Y-42401001D01*
X-44197580Y-42387920D01*
X-44296227Y-42368298D01*
X-44451099Y-42304148D01*
X-44590480Y-42211016D01*
X-44709014Y-42092482D01*
X-44802146Y-41953101D01*
X-44866296Y-41798229D01*
X-44898999Y-41633817D01*
X-44898999Y-41466185D01*
X-44866296Y-41301773D01*
X-44802146Y-41146901D01*
X-44709014Y-41007520D01*
X-44590480Y-40888986D01*
X-44451099Y-40795854D01*
X-44296227Y-40731704D01*
X-44197580Y-40712082D01*
X-44131817Y-40699001D01*
X-43964181Y-40699001D01*
X-43898418Y-40712082D01*
G37*
G36*
X-41358418Y-40712082D02*
G01*
X-41259771Y-40731704D01*
X-41104899Y-40795854D01*
X-40965518Y-40888986D01*
X-40846984Y-41007520D01*
X-40753852Y-41146901D01*
X-40689702Y-41301773D01*
X-40656999Y-41466185D01*
X-40656999Y-41633817D01*
X-40689702Y-41798229D01*
X-40753852Y-41953101D01*
X-40846984Y-42092482D01*
X-40965518Y-42211016D01*
X-41104899Y-42304148D01*
X-41259771Y-42368298D01*
X-41358418Y-42387920D01*
X-41424181Y-42401001D01*
X-41591817Y-42401001D01*
X-41657580Y-42387920D01*
X-41756227Y-42368298D01*
X-41911099Y-42304148D01*
X-42050480Y-42211016D01*
X-42169014Y-42092482D01*
X-42262146Y-41953101D01*
X-42326296Y-41798229D01*
X-42358999Y-41633817D01*
X-42358999Y-41466185D01*
X-42326296Y-41301773D01*
X-42262146Y-41146901D01*
X-42169014Y-41007520D01*
X-42050480Y-40888986D01*
X-41911099Y-40795854D01*
X-41756227Y-40731704D01*
X-41657580Y-40712082D01*
X-41591817Y-40699001D01*
X-41424181Y-40699001D01*
X-41358418Y-40712082D01*
G37*
G36*
X-38818418Y-40712082D02*
G01*
X-38719771Y-40731704D01*
X-38564899Y-40795854D01*
X-38425518Y-40888986D01*
X-38306984Y-41007520D01*
X-38213852Y-41146901D01*
X-38149702Y-41301773D01*
X-38116999Y-41466185D01*
X-38116999Y-41633817D01*
X-38149702Y-41798229D01*
X-38213852Y-41953101D01*
X-38306984Y-42092482D01*
X-38425518Y-42211016D01*
X-38564899Y-42304148D01*
X-38719771Y-42368298D01*
X-38818418Y-42387920D01*
X-38884181Y-42401001D01*
X-39051817Y-42401001D01*
X-39117580Y-42387920D01*
X-39216227Y-42368298D01*
X-39371099Y-42304148D01*
X-39510480Y-42211016D01*
X-39629014Y-42092482D01*
X-39722146Y-41953101D01*
X-39786296Y-41798229D01*
X-39818999Y-41633817D01*
X-39818999Y-41466185D01*
X-39786296Y-41301773D01*
X-39722146Y-41146901D01*
X-39629014Y-41007520D01*
X-39510480Y-40888986D01*
X-39371099Y-40795854D01*
X-39216227Y-40731704D01*
X-39117580Y-40712082D01*
X-39051817Y-40699001D01*
X-38884181Y-40699001D01*
X-38818418Y-40712082D01*
G37*
G36*
X-36278418Y-40712082D02*
G01*
X-36179771Y-40731704D01*
X-36024899Y-40795854D01*
X-35885518Y-40888986D01*
X-35766984Y-41007520D01*
X-35673852Y-41146901D01*
X-35609702Y-41301773D01*
X-35576999Y-41466185D01*
X-35576999Y-41633817D01*
X-35609702Y-41798229D01*
X-35673852Y-41953101D01*
X-35766984Y-42092482D01*
X-35885518Y-42211016D01*
X-36024899Y-42304148D01*
X-36179771Y-42368298D01*
X-36278418Y-42387920D01*
X-36344181Y-42401001D01*
X-36511817Y-42401001D01*
X-36577580Y-42387920D01*
X-36676227Y-42368298D01*
X-36831099Y-42304148D01*
X-36970480Y-42211016D01*
X-37089014Y-42092482D01*
X-37182146Y-41953101D01*
X-37246296Y-41798229D01*
X-37278999Y-41633817D01*
X-37278999Y-41466185D01*
X-37246296Y-41301773D01*
X-37182146Y-41146901D01*
X-37089014Y-41007520D01*
X-36970480Y-40888986D01*
X-36831099Y-40795854D01*
X-36676227Y-40731704D01*
X-36577580Y-40712082D01*
X-36511817Y-40699001D01*
X-36344181Y-40699001D01*
X-36278418Y-40712082D01*
G37*
G36*
X-33738418Y-40712082D02*
G01*
X-33639771Y-40731704D01*
X-33484899Y-40795854D01*
X-33345518Y-40888986D01*
X-33226984Y-41007520D01*
X-33133852Y-41146901D01*
X-33069702Y-41301773D01*
X-33036999Y-41466185D01*
X-33036999Y-41633817D01*
X-33069702Y-41798229D01*
X-33133852Y-41953101D01*
X-33226984Y-42092482D01*
X-33345518Y-42211016D01*
X-33484899Y-42304148D01*
X-33639771Y-42368298D01*
X-33738418Y-42387920D01*
X-33804181Y-42401001D01*
X-33971817Y-42401001D01*
X-34037580Y-42387920D01*
X-34136227Y-42368298D01*
X-34291099Y-42304148D01*
X-34430480Y-42211016D01*
X-34549014Y-42092482D01*
X-34642146Y-41953101D01*
X-34706296Y-41798229D01*
X-34738999Y-41633817D01*
X-34738999Y-41466185D01*
X-34706296Y-41301773D01*
X-34642146Y-41146901D01*
X-34549014Y-41007520D01*
X-34430480Y-40888986D01*
X-34291099Y-40795854D01*
X-34136227Y-40731704D01*
X-34037580Y-40712082D01*
X-33971817Y-40699001D01*
X-33804181Y-40699001D01*
X-33738418Y-40712082D01*
G37*
G36*
X-70818418Y-40712082D02*
G01*
X-70719771Y-40731704D01*
X-70564899Y-40795854D01*
X-70425518Y-40888986D01*
X-70306984Y-41007520D01*
X-70213852Y-41146901D01*
X-70149702Y-41301773D01*
X-70116999Y-41466185D01*
X-70116999Y-41633817D01*
X-70149702Y-41798229D01*
X-70213852Y-41953101D01*
X-70306984Y-42092482D01*
X-70425518Y-42211016D01*
X-70564899Y-42304148D01*
X-70719771Y-42368298D01*
X-70818418Y-42387920D01*
X-70884181Y-42401001D01*
X-71051817Y-42401001D01*
X-71117580Y-42387920D01*
X-71216227Y-42368298D01*
X-71371099Y-42304148D01*
X-71510480Y-42211016D01*
X-71629014Y-42092482D01*
X-71722146Y-41953101D01*
X-71786296Y-41798229D01*
X-71818999Y-41633817D01*
X-71818999Y-41466185D01*
X-71786296Y-41301773D01*
X-71722146Y-41146901D01*
X-71629014Y-41007520D01*
X-71510480Y-40888986D01*
X-71371099Y-40795854D01*
X-71216227Y-40731704D01*
X-71117580Y-40712082D01*
X-71051817Y-40699001D01*
X-70884181Y-40699001D01*
X-70818418Y-40712082D01*
G37*
G36*
X-73358418Y-40712082D02*
G01*
X-73259771Y-40731704D01*
X-73104899Y-40795854D01*
X-72965518Y-40888986D01*
X-72846984Y-41007520D01*
X-72753852Y-41146901D01*
X-72689702Y-41301773D01*
X-72656999Y-41466185D01*
X-72656999Y-41633817D01*
X-72689702Y-41798229D01*
X-72753852Y-41953101D01*
X-72846984Y-42092482D01*
X-72965518Y-42211016D01*
X-73104899Y-42304148D01*
X-73259771Y-42368298D01*
X-73358418Y-42387920D01*
X-73424181Y-42401001D01*
X-73591817Y-42401001D01*
X-73657580Y-42387920D01*
X-73756227Y-42368298D01*
X-73911099Y-42304148D01*
X-74050480Y-42211016D01*
X-74169014Y-42092482D01*
X-74262146Y-41953101D01*
X-74326296Y-41798229D01*
X-74358999Y-41633817D01*
X-74358999Y-41466185D01*
X-74326296Y-41301773D01*
X-74262146Y-41146901D01*
X-74169014Y-41007520D01*
X-74050480Y-40888986D01*
X-73911099Y-40795854D01*
X-73756227Y-40731704D01*
X-73657580Y-40712082D01*
X-73591817Y-40699001D01*
X-73424181Y-40699001D01*
X-73358418Y-40712082D01*
G37*
G36*
X-26688095Y-24897662D02*
G01*
X-26652179Y-24908557D01*
X-26619073Y-24926252D01*
X-26590061Y-24950061D01*
X-26566252Y-24979073D01*
X-26548557Y-25012179D01*
X-26537662Y-25048095D01*
X-26533500Y-25090354D01*
X-26533500Y-26598646D01*
X-26537662Y-26640905D01*
X-26548557Y-26676821D01*
X-26566252Y-26709927D01*
X-26590061Y-26738939D01*
X-26619073Y-26762748D01*
X-26652179Y-26780443D01*
X-26688095Y-26791338D01*
X-26730354Y-26795500D01*
X-30038646Y-26795500D01*
X-30080905Y-26791338D01*
X-30116821Y-26780443D01*
X-30149927Y-26762748D01*
X-30178939Y-26738939D01*
X-30202748Y-26709927D01*
X-30220443Y-26676821D01*
X-30231338Y-26640905D01*
X-30235500Y-26598646D01*
X-30235500Y-25090354D01*
X-30231338Y-25048095D01*
X-30220443Y-25012179D01*
X-30202748Y-24979073D01*
X-30178939Y-24950061D01*
X-30149927Y-24926252D01*
X-30116821Y-24908557D01*
X-30080905Y-24897662D01*
X-30038646Y-24893500D01*
X-26730354Y-24893500D01*
X-26688095Y-24897662D01*
G37*
G36*
X-27298075Y-21407259D02*
G01*
X-27178562Y-21443514D01*
X-27118807Y-21461640D01*
X-27118805Y-21461641D01*
X-26953597Y-21549945D01*
X-26808788Y-21668788D01*
X-26689945Y-21813597D01*
X-26601641Y-21978805D01*
X-26547259Y-22158075D01*
X-26528898Y-22344500D01*
X-26547259Y-22530925D01*
X-26601641Y-22710195D01*
X-26689945Y-22875403D01*
X-26808788Y-23020212D01*
X-26953597Y-23139055D01*
X-27118805Y-23227359D01*
X-27118807Y-23227360D01*
X-27178562Y-23245486D01*
X-27298075Y-23281741D01*
X-27437777Y-23295500D01*
X-29331223Y-23295500D01*
X-29470925Y-23281741D01*
X-29590438Y-23245486D01*
X-29650193Y-23227360D01*
X-29650195Y-23227359D01*
X-29815403Y-23139055D01*
X-29960212Y-23020212D01*
X-30079055Y-22875403D01*
X-30167359Y-22710195D01*
X-30221741Y-22530925D01*
X-30240102Y-22344500D01*
X-30221741Y-22158075D01*
X-30167359Y-21978805D01*
X-30079055Y-21813597D01*
X-29960212Y-21668788D01*
X-29815403Y-21549945D01*
X-29650195Y-21461641D01*
X-29650193Y-21461640D01*
X-29590438Y-21443514D01*
X-29470925Y-21407259D01*
X-29331223Y-21393500D01*
X-27437777Y-21393500D01*
X-27298075Y-21407259D01*
G37*
G36*
X-26688095Y-14420162D02*
G01*
X-26652179Y-14431057D01*
X-26619073Y-14448752D01*
X-26590061Y-14472561D01*
X-26566252Y-14501573D01*
X-26548557Y-14534679D01*
X-26537662Y-14570595D01*
X-26533500Y-14612854D01*
X-26533500Y-16121146D01*
X-26537662Y-16163405D01*
X-26548557Y-16199321D01*
X-26566252Y-16232427D01*
X-26590061Y-16261439D01*
X-26619073Y-16285248D01*
X-26652179Y-16302943D01*
X-26688095Y-16313838D01*
X-26730354Y-16318000D01*
X-30038646Y-16318000D01*
X-30080905Y-16313838D01*
X-30116821Y-16302943D01*
X-30149927Y-16285248D01*
X-30178939Y-16261439D01*
X-30202748Y-16232427D01*
X-30220443Y-16199321D01*
X-30231338Y-16163405D01*
X-30235500Y-16121146D01*
X-30235500Y-14612854D01*
X-30231338Y-14570595D01*
X-30220443Y-14534679D01*
X-30202748Y-14501573D01*
X-30178939Y-14472561D01*
X-30149927Y-14448752D01*
X-30116821Y-14431057D01*
X-30080905Y-14420162D01*
X-30038646Y-14416000D01*
X-26730354Y-14416000D01*
X-26688095Y-14420162D01*
G37*
G36*
X-27298075Y-10929759D02*
G01*
X-27178562Y-10966014D01*
X-27118807Y-10984140D01*
X-27118805Y-10984141D01*
X-26953597Y-11072445D01*
X-26808788Y-11191288D01*
X-26689945Y-11336097D01*
X-26601641Y-11501305D01*
X-26547259Y-11680575D01*
X-26528898Y-11867000D01*
X-26547259Y-12053425D01*
X-26601641Y-12232695D01*
X-26689945Y-12397903D01*
X-26808788Y-12542712D01*
X-26953597Y-12661555D01*
X-27118805Y-12749859D01*
X-27118807Y-12749860D01*
X-27178562Y-12767986D01*
X-27298075Y-12804241D01*
X-27437777Y-12818000D01*
X-29331223Y-12818000D01*
X-29470925Y-12804241D01*
X-29590438Y-12767986D01*
X-29650193Y-12749860D01*
X-29650195Y-12749859D01*
X-29815403Y-12661555D01*
X-29960212Y-12542712D01*
X-30079055Y-12397903D01*
X-30167359Y-12232695D01*
X-30221741Y-12053425D01*
X-30240102Y-11867000D01*
X-30221741Y-11680575D01*
X-30167359Y-11501305D01*
X-30079055Y-11336097D01*
X-29960212Y-11191288D01*
X-29815403Y-11072445D01*
X-29650195Y-10984141D01*
X-29650193Y-10984140D01*
X-29590438Y-10966014D01*
X-29470925Y-10929759D01*
X-29331223Y-10916000D01*
X-27437777Y-10916000D01*
X-27298075Y-10929759D01*
G37*
G36*
X-26688095Y-4641162D02*
G01*
X-26652179Y-4652057D01*
X-26619073Y-4669752D01*
X-26590061Y-4693561D01*
X-26566252Y-4722573D01*
X-26548557Y-4755679D01*
X-26537662Y-4791595D01*
X-26533500Y-4833854D01*
X-26533500Y-6342146D01*
X-26537662Y-6384405D01*
X-26548557Y-6420321D01*
X-26566252Y-6453427D01*
X-26590061Y-6482439D01*
X-26619073Y-6506248D01*
X-26652179Y-6523943D01*
X-26688095Y-6534838D01*
X-26730354Y-6539000D01*
X-30038646Y-6539000D01*
X-30080905Y-6534838D01*
X-30116821Y-6523943D01*
X-30149927Y-6506248D01*
X-30178939Y-6482439D01*
X-30202748Y-6453427D01*
X-30220443Y-6420321D01*
X-30231338Y-6384405D01*
X-30235500Y-6342146D01*
X-30235500Y-4833854D01*
X-30231338Y-4791595D01*
X-30220443Y-4755679D01*
X-30202748Y-4722573D01*
X-30178939Y-4693561D01*
X-30149927Y-4669752D01*
X-30116821Y-4652057D01*
X-30080905Y-4641162D01*
X-30038646Y-4637000D01*
X-26730354Y-4637000D01*
X-26688095Y-4641162D01*
G37*
G36*
X-27298075Y-1150759D02*
G01*
X-27178562Y-1187014D01*
X-27118807Y-1205140D01*
X-27118805Y-1205141D01*
X-26953597Y-1293445D01*
X-26808788Y-1412288D01*
X-26689945Y-1557097D01*
X-26601641Y-1722305D01*
X-26547259Y-1901575D01*
X-26528898Y-2088000D01*
X-26547259Y-2274425D01*
X-26601641Y-2453695D01*
X-26689945Y-2618903D01*
X-26808788Y-2763712D01*
X-26953597Y-2882555D01*
X-27118805Y-2970859D01*
X-27118807Y-2970860D01*
X-27178562Y-2988986D01*
X-27298075Y-3025241D01*
X-27437777Y-3039000D01*
X-29331223Y-3039000D01*
X-29470925Y-3025241D01*
X-29590438Y-2988986D01*
X-29650193Y-2970860D01*
X-29650195Y-2970859D01*
X-29815403Y-2882555D01*
X-29960212Y-2763712D01*
X-30079055Y-2618903D01*
X-30167359Y-2453695D01*
X-30221741Y-2274425D01*
X-30240102Y-2088000D01*
X-30221741Y-1901575D01*
X-30167359Y-1722305D01*
X-30079055Y-1557097D01*
X-29960212Y-1412288D01*
X-29815403Y-1293445D01*
X-29650195Y-1205141D01*
X-29650193Y-1205140D01*
X-29590438Y-1187014D01*
X-29470925Y-1150759D01*
X-29331223Y-1137000D01*
X-27437777Y-1137000D01*
X-27298075Y-1150759D01*
G37*
G36*
X-63516999Y5858999D02*
G01*
X-65218999Y5858999D01*
X-65218999Y7560999D01*
X-63516999Y7560999D01*
X-63516999Y5858999D01*
G37*
G36*
X-59138418Y7547918D02*
G01*
X-59039771Y7528296D01*
X-58884899Y7464146D01*
X-58745518Y7371014D01*
X-58626984Y7252480D01*
X-58533852Y7113099D01*
X-58469702Y6958227D01*
X-58436999Y6793815D01*
X-58436999Y6626183D01*
X-58469702Y6461771D01*
X-58533852Y6306899D01*
X-58626984Y6167518D01*
X-58745518Y6048984D01*
X-58884899Y5955852D01*
X-59039771Y5891702D01*
X-59138418Y5872080D01*
X-59204181Y5858999D01*
X-59371817Y5858999D01*
X-59437580Y5872080D01*
X-59536227Y5891702D01*
X-59691099Y5955852D01*
X-59830480Y6048984D01*
X-59949014Y6167518D01*
X-60042146Y6306899D01*
X-60106296Y6461771D01*
X-60138999Y6626183D01*
X-60138999Y6793815D01*
X-60106296Y6958227D01*
X-60042146Y7113099D01*
X-59949014Y7252480D01*
X-59830480Y7371014D01*
X-59691099Y7464146D01*
X-59536227Y7528296D01*
X-59437580Y7547918D01*
X-59371817Y7560999D01*
X-59204181Y7560999D01*
X-59138418Y7547918D01*
G37*
G36*
X-56598418Y7547918D02*
G01*
X-56499771Y7528296D01*
X-56344899Y7464146D01*
X-56205518Y7371014D01*
X-56086984Y7252480D01*
X-55993852Y7113099D01*
X-55929702Y6958227D01*
X-55896999Y6793815D01*
X-55896999Y6626183D01*
X-55929702Y6461771D01*
X-55993852Y6306899D01*
X-56086984Y6167518D01*
X-56205518Y6048984D01*
X-56344899Y5955852D01*
X-56499771Y5891702D01*
X-56598418Y5872080D01*
X-56664181Y5858999D01*
X-56831817Y5858999D01*
X-56897580Y5872080D01*
X-56996227Y5891702D01*
X-57151099Y5955852D01*
X-57290480Y6048984D01*
X-57409014Y6167518D01*
X-57502146Y6306899D01*
X-57566296Y6461771D01*
X-57598999Y6626183D01*
X-57598999Y6793815D01*
X-57566296Y6958227D01*
X-57502146Y7113099D01*
X-57409014Y7252480D01*
X-57290480Y7371014D01*
X-57151099Y7464146D01*
X-56996227Y7528296D01*
X-56897580Y7547918D01*
X-56831817Y7560999D01*
X-56664181Y7560999D01*
X-56598418Y7547918D01*
G37*
G36*
X-54058418Y7547918D02*
G01*
X-53959771Y7528296D01*
X-53804899Y7464146D01*
X-53665518Y7371014D01*
X-53546984Y7252480D01*
X-53453852Y7113099D01*
X-53389702Y6958227D01*
X-53356999Y6793815D01*
X-53356999Y6626183D01*
X-53389702Y6461771D01*
X-53453852Y6306899D01*
X-53546984Y6167518D01*
X-53665518Y6048984D01*
X-53804899Y5955852D01*
X-53959771Y5891702D01*
X-54058418Y5872080D01*
X-54124181Y5858999D01*
X-54291817Y5858999D01*
X-54357580Y5872080D01*
X-54456227Y5891702D01*
X-54611099Y5955852D01*
X-54750480Y6048984D01*
X-54869014Y6167518D01*
X-54962146Y6306899D01*
X-55026296Y6461771D01*
X-55058999Y6626183D01*
X-55058999Y6793815D01*
X-55026296Y6958227D01*
X-54962146Y7113099D01*
X-54869014Y7252480D01*
X-54750480Y7371014D01*
X-54611099Y7464146D01*
X-54456227Y7528296D01*
X-54357580Y7547918D01*
X-54291817Y7560999D01*
X-54124181Y7560999D01*
X-54058418Y7547918D01*
G37*
G36*
X-61678418Y7547918D02*
G01*
X-61579771Y7528296D01*
X-61424899Y7464146D01*
X-61285518Y7371014D01*
X-61166984Y7252480D01*
X-61073852Y7113099D01*
X-61009702Y6958227D01*
X-60976999Y6793815D01*
X-60976999Y6626183D01*
X-61009702Y6461771D01*
X-61073852Y6306899D01*
X-61166984Y6167518D01*
X-61285518Y6048984D01*
X-61424899Y5955852D01*
X-61579771Y5891702D01*
X-61678418Y5872080D01*
X-61744181Y5858999D01*
X-61911817Y5858999D01*
X-61977580Y5872080D01*
X-62076227Y5891702D01*
X-62231099Y5955852D01*
X-62370480Y6048984D01*
X-62489014Y6167518D01*
X-62582146Y6306899D01*
X-62646296Y6461771D01*
X-62678999Y6626183D01*
X-62678999Y6793815D01*
X-62646296Y6958227D01*
X-62582146Y7113099D01*
X-62489014Y7252480D01*
X-62370480Y7371014D01*
X-62231099Y7464146D01*
X-62076227Y7528296D01*
X-61977580Y7547918D01*
X-61911817Y7560999D01*
X-61744181Y7560999D01*
X-61678418Y7547918D01*
G37*
G36*
X-48978418Y7547918D02*
G01*
X-48879771Y7528296D01*
X-48724899Y7464146D01*
X-48585518Y7371014D01*
X-48466984Y7252480D01*
X-48373852Y7113099D01*
X-48309702Y6958227D01*
X-48276999Y6793815D01*
X-48276999Y6626183D01*
X-48309702Y6461771D01*
X-48373852Y6306899D01*
X-48466984Y6167518D01*
X-48585518Y6048984D01*
X-48724899Y5955852D01*
X-48879771Y5891702D01*
X-48978418Y5872080D01*
X-49044181Y5858999D01*
X-49211817Y5858999D01*
X-49277580Y5872080D01*
X-49376227Y5891702D01*
X-49531099Y5955852D01*
X-49670480Y6048984D01*
X-49789014Y6167518D01*
X-49882146Y6306899D01*
X-49946296Y6461771D01*
X-49978999Y6626183D01*
X-49978999Y6793815D01*
X-49946296Y6958227D01*
X-49882146Y7113099D01*
X-49789014Y7252480D01*
X-49670480Y7371014D01*
X-49531099Y7464146D01*
X-49376227Y7528296D01*
X-49277580Y7547918D01*
X-49211817Y7560999D01*
X-49044181Y7560999D01*
X-48978418Y7547918D01*
G37*
G36*
X-46438418Y7547918D02*
G01*
X-46339771Y7528296D01*
X-46184899Y7464146D01*
X-46045518Y7371014D01*
X-45926984Y7252480D01*
X-45833852Y7113099D01*
X-45769702Y6958227D01*
X-45736999Y6793815D01*
X-45736999Y6626183D01*
X-45769702Y6461771D01*
X-45833852Y6306899D01*
X-45926984Y6167518D01*
X-46045518Y6048984D01*
X-46184899Y5955852D01*
X-46339771Y5891702D01*
X-46438418Y5872080D01*
X-46504181Y5858999D01*
X-46671817Y5858999D01*
X-46737580Y5872080D01*
X-46836227Y5891702D01*
X-46991099Y5955852D01*
X-47130480Y6048984D01*
X-47249014Y6167518D01*
X-47342146Y6306899D01*
X-47406296Y6461771D01*
X-47438999Y6626183D01*
X-47438999Y6793815D01*
X-47406296Y6958227D01*
X-47342146Y7113099D01*
X-47249014Y7252480D01*
X-47130480Y7371014D01*
X-46991099Y7464146D01*
X-46836227Y7528296D01*
X-46737580Y7547918D01*
X-46671817Y7560999D01*
X-46504181Y7560999D01*
X-46438418Y7547918D01*
G37*
G36*
X-28658418Y7547918D02*
G01*
X-28559771Y7528296D01*
X-28404899Y7464146D01*
X-28265518Y7371014D01*
X-28146984Y7252480D01*
X-28053852Y7113099D01*
X-27989702Y6958227D01*
X-27956999Y6793815D01*
X-27956999Y6626183D01*
X-27989702Y6461771D01*
X-28053852Y6306899D01*
X-28146984Y6167518D01*
X-28265518Y6048984D01*
X-28404899Y5955852D01*
X-28559771Y5891702D01*
X-28658418Y5872080D01*
X-28724181Y5858999D01*
X-28891817Y5858999D01*
X-28957580Y5872080D01*
X-29056227Y5891702D01*
X-29211099Y5955852D01*
X-29350480Y6048984D01*
X-29469014Y6167518D01*
X-29562146Y6306899D01*
X-29626296Y6461771D01*
X-29658999Y6626183D01*
X-29658999Y6793815D01*
X-29626296Y6958227D01*
X-29562146Y7113099D01*
X-29469014Y7252480D01*
X-29350480Y7371014D01*
X-29211099Y7464146D01*
X-29056227Y7528296D01*
X-28957580Y7547918D01*
X-28891817Y7560999D01*
X-28724181Y7560999D01*
X-28658418Y7547918D01*
G37*
G36*
X-31198418Y7547918D02*
G01*
X-31099771Y7528296D01*
X-30944899Y7464146D01*
X-30805518Y7371014D01*
X-30686984Y7252480D01*
X-30593852Y7113099D01*
X-30529702Y6958227D01*
X-30496999Y6793815D01*
X-30496999Y6626183D01*
X-30529702Y6461771D01*
X-30593852Y6306899D01*
X-30686984Y6167518D01*
X-30805518Y6048984D01*
X-30944899Y5955852D01*
X-31099771Y5891702D01*
X-31198418Y5872080D01*
X-31264181Y5858999D01*
X-31431817Y5858999D01*
X-31497580Y5872080D01*
X-31596227Y5891702D01*
X-31751099Y5955852D01*
X-31890480Y6048984D01*
X-32009014Y6167518D01*
X-32102146Y6306899D01*
X-32166296Y6461771D01*
X-32198999Y6626183D01*
X-32198999Y6793815D01*
X-32166296Y6958227D01*
X-32102146Y7113099D01*
X-32009014Y7252480D01*
X-31890480Y7371014D01*
X-31751099Y7464146D01*
X-31596227Y7528296D01*
X-31497580Y7547918D01*
X-31431817Y7560999D01*
X-31264181Y7560999D01*
X-31198418Y7547918D01*
G37*
G36*
X-33738418Y7547918D02*
G01*
X-33639771Y7528296D01*
X-33484899Y7464146D01*
X-33345518Y7371014D01*
X-33226984Y7252480D01*
X-33133852Y7113099D01*
X-33069702Y6958227D01*
X-33036999Y6793815D01*
X-33036999Y6626183D01*
X-33069702Y6461771D01*
X-33133852Y6306899D01*
X-33226984Y6167518D01*
X-33345518Y6048984D01*
X-33484899Y5955852D01*
X-33639771Y5891702D01*
X-33738418Y5872080D01*
X-33804181Y5858999D01*
X-33971817Y5858999D01*
X-34037580Y5872080D01*
X-34136227Y5891702D01*
X-34291099Y5955852D01*
X-34430480Y6048984D01*
X-34549014Y6167518D01*
X-34642146Y6306899D01*
X-34706296Y6461771D01*
X-34738999Y6626183D01*
X-34738999Y6793815D01*
X-34706296Y6958227D01*
X-34642146Y7113099D01*
X-34549014Y7252480D01*
X-34430480Y7371014D01*
X-34291099Y7464146D01*
X-34136227Y7528296D01*
X-34037580Y7547918D01*
X-33971817Y7560999D01*
X-33804181Y7560999D01*
X-33738418Y7547918D01*
G37*
G36*
X-36278418Y7547918D02*
G01*
X-36179771Y7528296D01*
X-36024899Y7464146D01*
X-35885518Y7371014D01*
X-35766984Y7252480D01*
X-35673852Y7113099D01*
X-35609702Y6958227D01*
X-35576999Y6793815D01*
X-35576999Y6626183D01*
X-35609702Y6461771D01*
X-35673852Y6306899D01*
X-35766984Y6167518D01*
X-35885518Y6048984D01*
X-36024899Y5955852D01*
X-36179771Y5891702D01*
X-36278418Y5872080D01*
X-36344181Y5858999D01*
X-36511817Y5858999D01*
X-36577580Y5872080D01*
X-36676227Y5891702D01*
X-36831099Y5955852D01*
X-36970480Y6048984D01*
X-37089014Y6167518D01*
X-37182146Y6306899D01*
X-37246296Y6461771D01*
X-37278999Y6626183D01*
X-37278999Y6793815D01*
X-37246296Y6958227D01*
X-37182146Y7113099D01*
X-37089014Y7252480D01*
X-36970480Y7371014D01*
X-36831099Y7464146D01*
X-36676227Y7528296D01*
X-36577580Y7547918D01*
X-36511817Y7560999D01*
X-36344181Y7560999D01*
X-36278418Y7547918D01*
G37*
G36*
X-41358418Y7547918D02*
G01*
X-41259771Y7528296D01*
X-41104899Y7464146D01*
X-40965518Y7371014D01*
X-40846984Y7252480D01*
X-40753852Y7113099D01*
X-40689702Y6958227D01*
X-40656999Y6793815D01*
X-40656999Y6626183D01*
X-40689702Y6461771D01*
X-40753852Y6306899D01*
X-40846984Y6167518D01*
X-40965518Y6048984D01*
X-41104899Y5955852D01*
X-41259771Y5891702D01*
X-41358418Y5872080D01*
X-41424181Y5858999D01*
X-41591817Y5858999D01*
X-41657580Y5872080D01*
X-41756227Y5891702D01*
X-41911099Y5955852D01*
X-42050480Y6048984D01*
X-42169014Y6167518D01*
X-42262146Y6306899D01*
X-42326296Y6461771D01*
X-42358999Y6626183D01*
X-42358999Y6793815D01*
X-42326296Y6958227D01*
X-42262146Y7113099D01*
X-42169014Y7252480D01*
X-42050480Y7371014D01*
X-41911099Y7464146D01*
X-41756227Y7528296D01*
X-41657580Y7547918D01*
X-41591817Y7560999D01*
X-41424181Y7560999D01*
X-41358418Y7547918D01*
G37*
G36*
X-51518418Y7547918D02*
G01*
X-51419771Y7528296D01*
X-51264899Y7464146D01*
X-51125518Y7371014D01*
X-51006984Y7252480D01*
X-50913852Y7113099D01*
X-50849702Y6958227D01*
X-50816999Y6793815D01*
X-50816999Y6626183D01*
X-50849702Y6461771D01*
X-50913852Y6306899D01*
X-51006984Y6167518D01*
X-51125518Y6048984D01*
X-51264899Y5955852D01*
X-51419771Y5891702D01*
X-51518418Y5872080D01*
X-51584181Y5858999D01*
X-51751817Y5858999D01*
X-51817580Y5872080D01*
X-51916227Y5891702D01*
X-52071099Y5955852D01*
X-52210480Y6048984D01*
X-52329014Y6167518D01*
X-52422146Y6306899D01*
X-52486296Y6461771D01*
X-52518999Y6626183D01*
X-52518999Y6793815D01*
X-52486296Y6958227D01*
X-52422146Y7113099D01*
X-52329014Y7252480D01*
X-52210480Y7371014D01*
X-52071099Y7464146D01*
X-51916227Y7528296D01*
X-51817580Y7547918D01*
X-51751817Y7560999D01*
X-51584181Y7560999D01*
X-51518418Y7547918D01*
G37*
G36*
X-38818418Y7547918D02*
G01*
X-38719771Y7528296D01*
X-38564899Y7464146D01*
X-38425518Y7371014D01*
X-38306984Y7252480D01*
X-38213852Y7113099D01*
X-38149702Y6958227D01*
X-38116999Y6793815D01*
X-38116999Y6626183D01*
X-38149702Y6461771D01*
X-38213852Y6306899D01*
X-38306984Y6167518D01*
X-38425518Y6048984D01*
X-38564899Y5955852D01*
X-38719771Y5891702D01*
X-38818418Y5872080D01*
X-38884181Y5858999D01*
X-39051817Y5858999D01*
X-39117580Y5872080D01*
X-39216227Y5891702D01*
X-39371099Y5955852D01*
X-39510480Y6048984D01*
X-39629014Y6167518D01*
X-39722146Y6306899D01*
X-39786296Y6461771D01*
X-39818999Y6626183D01*
X-39818999Y6793815D01*
X-39786296Y6958227D01*
X-39722146Y7113099D01*
X-39629014Y7252480D01*
X-39510480Y7371014D01*
X-39371099Y7464146D01*
X-39216227Y7528296D01*
X-39117580Y7547918D01*
X-39051817Y7560999D01*
X-38884181Y7560999D01*
X-38818418Y7547918D01*
G37*
M02*
